<svg height="81.25" viewBox="0 0 81.25 81.25" width="81.25" xmlns="http://www.w3.org/2000/svg"><g fill="#fff" stroke="#f2f2f2"><rect height="81.25" rx="40.625" stroke="none" width="81.25"/><rect fill="none" height="80.25" rx="40.125" width="80.25" x=".5" y=".5"/></g><g transform="translate(24.244 23.87)"><path d="m32.012 24.971a.75.75 0 1 0 0 1.5.76.76 0 0 0 .735-.6.786.786 0 0 0 .015-.146.752.752 0 0 0 -.75-.75" fill="#333"/><path d="m31.7 27.96a.753.753 0 0 0 -.991.374l-.022.048a6.24 6.24 0 0 1 -11.909-2.613c0-2.141 1.082-4.97 3.13-8.188a4.049 4.049 0 0 0 1.852 1.247c-1.775 2.83-2.791 5.356-2.791 6.943a4.05 4.05 0 0 0 8.1 0c0-1.579-1.019-4.1-2.8-6.943a4.054 4.054 0 0 0 1.856-1.245 23.57 23.57 0 0 1 2.655 5.424.749.749 0 0 0 .957.459.753.753 0 0 0 .474-.912 26.11 26.11 0 0 0 -3.277-6.473c0-.014 0-.028.008-.042a4.086 4.086 0 0 1 -7.857-.039c.006.022.007.044.013.065-2.5 3.751-3.824 7.1-3.824 9.7a7.74 7.74 0 0 0 7.74 7.739 7.763 7.763 0 0 0 7.028-4.5l.026-.056a.752.752 0 0 0 -.369-.994m-4.132-2.191a2.556 2.556 0 0 1 -2.548 2.547 2.555 2.555 0 0 1 -2.546-2.547c0-1 .67-3.131 2.543-6.113 1.88 2.994 2.552 5.117 2.552 6.113" fill="#333"/><path d="m23.581 9.441v-.041a1.44 1.44 0 1 1 1.866 1.409 4.074 4.074 0 0 1 1.753.6 2.934 2.934 0 0 0 -1.426-4.809v-1.426a2.642 2.642 0 0 0 1.794-3.214 2.642 2.642 0 0 0 -5.194.676.752.752 0 0 0 .708.791h.042a.751.751 0 0 0 .749-.709.692.692 0 0 0 0-.078 1.141 1.141 0 1 1 1.141 1.141.752.752 0 0 0 -.751.751v2.068a2.923 2.923 0 0 0 -1.422 4.8 4.061 4.061 0 0 1 1.753-.6 1.44 1.44 0 0 1 -1.013-1.367" fill="#333"/><path d="m11.677 16a4.086 4.086 0 0 1 -7.849.069c-2.504 3.758-3.828 7.111-3.828 9.7a7.741 7.741 0 0 0 15.483 0c0-2.583-1.322-5.931-3.823-9.684.008-.027.009-.054.017-.081m-1.383 9.765a2.55 2.55 0 1 1 -5.1 0c0-1 .67-3.132 2.543-6.113 1.883 2.987 2.557 5.112 2.557 6.113m3.7 0a6.258 6.258 0 0 1 -6.24 6.24h-.038a6.256 6.256 0 0 1 -6.21-6.239c0-2.141 1.082-4.97 3.13-8.188a4.056 4.056 0 0 0 1.852 1.247c-1.775 2.829-2.788 5.355-2.788 6.942a4.05 4.05 0 0 0 8.1 0c0-1.579-1.018-4.1-2.8-6.943a4.044 4.044 0 0 0 1.854-1.243c2.052 3.223 3.135 6.05 3.135 8.182" fill="#333"/><path d="m6.307 9.441a1.44 1.44 0 1 1 1.868 1.368 4.083 4.083 0 0 1 1.747.6 2.934 2.934 0 0 0 -1.422-4.809v-1.426a2.642 2.642 0 1 0 -3.4-2.527.748.748 0 0 0 .249.518.735.735 0 0 0 .542.19.752.752 0 0 0 .709-.714 1.141 1.141 0 1 1 1.141 1.141.752.752 0 0 0 -.751.751v2.067a2.921 2.921 0 0 0 -1.422 4.8 4.07 4.07 0 0 1 1.749-.592 1.438 1.438 0 0 1 -1.01-1.367" fill="#333"/><path d="m7.742 18.989a4.107 4.107 0 0 0 3.935-2.989 4.049 4.049 0 0 0 .177-1.128 4.093 4.093 0 0 0 -3.678-4.068 3.913 3.913 0 0 0 -.434-.044 4 4 0 0 0 -.425.043 4.1 4.1 0 0 0 .425 8.181m0-6.594a2.482 2.482 0 1 1 -2.482 2.487 2.484 2.484 0 0 1 2.482-2.477" fill="#ec5363"/><path d="m25.02 18.989a4.1 4.1 0 0 0 .427-8.181 4.009 4.009 0 0 0 -.427-.043 3.99 3.99 0 0 0 -.426.043 4.1 4.1 0 0 0 .426 8.181m0-6.594a2.482 2.482 0 1 1 -2.482 2.482 2.484 2.484 0 0 1 2.482-2.477" fill="#ec5363"/></g></svg>