<svg xmlns="http://www.w3.org/2000/svg"
  xmlns:xlink="http://www.w3.org/1999/xlink" width="20.107" height="32" viewBox="0 0 20.107 32">
  <defs>
    <clipPath id="clip-path">
      <rect x="-0.055" y="-6" width="20.107" height="35" fill="none"/>
    </clipPath>
  </defs>
  <g id="알림" transform="translate(0.055 6)" clip-path="url(#clip-path)" style="isolation: isolate">
    <path id="패스_17515" data-name="패스 17515" d="M307.637,429.678a6.374,6.374,0,0,1-1-5.486l.743-2.655a6.835,6.835,0,0,0-4.357-8.218l.611-2.183a.736.736,0,0,0-.546-.905.775.775,0,0,0-.945.522l-.611,2.183a7.21,7.21,0,0,0-8.067,5.028l-.744,2.657a6.688,6.688,0,0,1-3.741,4.275,1.747,1.747,0,0,0-.96,1.106,1.72,1.72,0,0,0,1.271,2.116l4.55,1.169a3.718,3.718,0,0,0,2.851,3.793,3.925,3.925,0,0,0,4.451-1.918l4.549,1.168h0a1.863,1.863,0,0,0,1.493-.25A1.679,1.679,0,0,0,307.637,429.678Zm-10.544,1.973a2.238,2.238,0,0,1-1.7-1.966l4.2,1.078A2.36,2.36,0,0,1,297.093,431.651Zm9-.75-5.215-1.339h-.005l-5.958-1.53h-.005l-5.214-1.338a.243.243,0,0,1-.04-.461,8.172,8.172,0,0,0,4.56-5.228l.744-2.655a5.7,5.7,0,0,1,6.932-3.832,5.406,5.406,0,0,1,4,6.64l-.743,2.655a7.8,7.8,0,0,0,1.222,6.715.237.237,0,0,1,.037.2A.262.262,0,0,1,306.093,430.9Z" transform="translate(-287.959 -411.706)" fill="#333" stroke="#333" stroke-width="0.1"/>
  </g>
</svg>
