<svg height="81.25" viewBox="0 0 81.25 81.25" width="81.25" xmlns="http://www.w3.org/2000/svg"><g fill="#fff" stroke="#f2f2f2"><rect height="81.25" rx="40.625" stroke="none" width="81.25"/><rect fill="none" height="80.25" rx="40.125" width="80.25" x=".5" y=".5"/></g><g stroke-width=".5"><path d="m27.389 30.736h-17.38a3.724 3.724 0 0 1 -3.709-3.729v-3.991a6.146 6.146 0 0 1 -2.157-1.366c-1.943-1.706-3.365-4.699-3.9-8.211-.589-3.846-.1-6.727 1.442-8.56a4.923 4.923 0 0 1 3.468-1.791l1.027-.139c.066-.008.135-.016.2-.022a3.688 3.688 0 0 1 3.629-2.927h17.38a3.69 3.69 0 0 1 3.621 2.917 3.4 3.4 0 0 1 .668.031l1.036.14a4.925 4.925 0 0 1 3.468 1.791c1.546 1.834 2.031 4.714 1.442 8.561-.535 3.512-1.957 6.5-3.9 8.212a5.054 5.054 0 0 1 -2.624 1.457v3.9a3.724 3.724 0 0 1 -3.711 3.729m-20.698-26.761a3.412 3.412 0 0 0 -.377.029l-1.035.14h-.035a3.818 3.818 0 0 0 -2.744 1.419c-1.34 1.588-1.745 4.183-1.2 7.713.5 3.268 1.792 6.028 3.551 7.573a4.224 4.224 0 0 0 2.03 1.2.533.533 0 0 1 .486.531v4.427a2.657 2.657 0 0 0 2.645 2.663h17.38a2.658 2.658 0 0 0 2.645-2.663v-4.461a.533.533 0 0 1 .624-.525l.113.019c.5.084 1.257-.319 2.247-1.192 1.759-1.545 3.054-4.305 3.552-7.573.541-3.53.136-6.125-1.2-7.713a3.818 3.818 0 0 0 -2.744-1.415h-.035l-1.051-.149c-.178-.021-.524-.062-.614.023a.533.533 0 0 1 -.9-.372 2.638 2.638 0 0 0 -2.641-2.591h-17.379a2.667 2.667 0 0 0 -2.634 2.44.533.533 0 0 1 -.583.485.993.993 0 0 0 -.1 0m23.875 15.247a.532.532 0 0 1 -.533-.533v-10.962a.533.533 0 0 1 1.028-.2c.027.068.048.122.43.174l1.216-.011a.748.748 0 0 1 .09.006c1.872.294 2.055 2.067 1.879 3.5l-.47 3.852c-.364 2.993-1.786 3.507-2.824 3.882a4.9 4.9 0 0 0 -.571.232.533.533 0 0 1 -.245.059m.533-10.5v9.179c.918-.334 1.772-.7 2.05-2.981l.47-3.852c.251-2.045-.549-2.249-.942-2.314l-1.208.018a.567.567 0 0 1 -.075 0c-.084-.011-.186-.023-.295-.046m-24.27 10.298a.527.527 0 0 1 -.184-.033l-.162-.059c-1.038-.375-2.46-.889-2.824-3.882l-.47-3.852c-.177-1.436.01-3.207 1.878-3.507a.814.814 0 0 1 .09-.006l1.215.018a1.807 1.807 0 0 0 .293-.06.533.533 0 0 1 .7.507v10.341a.532.532 0 0 1 -.533.533m-1.644-10.27c-.389.065-1.189.269-.942 2.314l.47 3.853c.229 1.883.853 2.462 1.581 2.794v-8.944z" fill="#333" stroke="#333" transform="translate(21.692 25.257)"/><path d="m57.871 11.315h-9.686a4.386 4.386 0 0 1 -4.385-4.381v-6.385a.533.533 0 0 1 .533-.533h17.385a.533.533 0 0 1 .533.533v6.385a4.386 4.386 0 0 1 -4.381 4.381m-13-10.233v5.852a3.319 3.319 0 0 0 3.316 3.315h9.685a3.319 3.319 0 0 0 3.315-3.315v-5.853z" fill="#333" stroke="#333" transform="translate(-12.778 25.244)"/><path d="m80.432 51.341h-3.922a.533.533 0 0 1 -.533-.533v-2.234a.533.533 0 0 1 1.065 0v1.7h2.858v-1.7a.533.533 0 0 1 1.065 0v2.234a.533.533 0 0 1 -.533.533" fill="#333" stroke="#333" transform="translate(-38.095 -12.547)"/><path d="m30.153 34.1a.533.533 0 0 1 -.533-.533v-19.338a.533.533 0 1 1 1.065 0v19.334a.533.533 0 0 1 -.533.533" fill="#333" stroke="#333" transform="translate(-1.616 14.479)"/><path d="m141.481 34.1a.533.533 0 0 1 -.533-.533v-19.338a.533.533 0 1 1 1.065 0v19.334a.533.533 0 0 1 -.533.533" fill="#333" stroke="#333" transform="translate(-89.222 14.479)"/><path d="m66.607 91.139h-14.3a.533.533 0 0 1 -.533-.533v-7.586a.533.533 0 0 1 .533-.533h14.3a.533.533 0 0 1 .533.533v7.587a.533.533 0 0 1 -.533.533m-13.767-1.066h13.235v-6.521h-13.235z" fill="#ec5363" stroke="#ec5363" transform="translate(-19.025 -39.653)"/></g><circle cx="37.75" cy="47" fill="#ec5363" r="1"/><circle cx="42.75" cy="47" fill="#ec5363" r="1"/></svg>