<svg xmlns="http://www.w3.org/2000/svg" width="36.605" height="30" viewBox="0 0 36.605 30">
    <g data-name="그룹 60196">
        <path data-name="사각형 5099" transform="translate(.443)" style="fill:none" d="M0 0h36v30H0z"/>
        <g data-name="그룹 60193">
            <g data-name="그룹 60192">
                <path data-name="패스 34442" d="M36.6 89.6c-.044-1.014-1.036-1.823-2.954-2.407a21.044 21.044 0 0 0-5.419-.758v-7.782a.789.789 0 0 0-.109-.365c-.2-.882-1.189-1.6-2.932-2.122a21.714 21.714 0 0 0-6.039-.766 21.169 21.169 0 0 0-5.98.766c-1.32.408-2.9 1.167-2.9 2.472a1.343 1.343 0 0 0 .022.241l.08 3.326a8.727 8.727 0 1 0 3.86 15.345 21.569 21.569 0 0 0 4.668.511c.372 2.02 4.748 2.946 8.825 2.946a20.873 20.873 0 0 0 5.98-.78c1.32-.408 2.9-1.174 2.9-2.48v-8.008a.883.883 0 0 0-.002-.139zm-9.9-6.914c0 .095-.35.6-1.933 1.079a20.644 20.644 0 0 1-5.616.707 20.865 20.865 0 0 1-4.967-.547c-.022-.007-.036-.007-.058-.015a8.415 8.415 0 0 0-2.283-1.291l-.051-2.057a8.081 8.081 0 0 0 1.575.605 21.556 21.556 0 0 0 5.784.707 21.751 21.751 0 0 0 6.039-.766 8.748 8.748 0 0 0 1.583-.635v1.911a.419.419 0 0 0-.073.302zm-13.1-5.113a19.7 19.7 0 0 1 5.543-.707 20.362 20.362 0 0 1 5.616.707c1.583.481 1.933.977 1.933 1.072s-.357.605-1.94 1.079a20.609 20.609 0 0 1-5.609.7 20.024 20.024 0 0 1-5.375-.656c-1.568-.452-2.006-.948-2.042-1.109 0-.015-.007-.015-.007-.015.009-.137.344-.604 1.881-1.071zm.022 18.583A7.269 7.269 0 1 1 8.73 83.517a7.428 7.428 0 0 1 2.152.321 7.3 7.3 0 0 1 4.974 5.477A7.627 7.627 0 0 1 16 90.781a7.226 7.226 0 0 1-2.376 5.376zm1.852.16a8.806 8.806 0 0 0 1.4-2.4c.62.051 1.262.088 1.933.095v.131l.044 2.472a22.782 22.782 0 0 1-3.375-.297zm1.947-6.4c.423.029.868.044 1.32.051l.044 2.582a24.188 24.188 0 0 1-1.5-.066 8.965 8.965 0 0 0 .168-1.707 8.92 8.92 0 0 0-.029-.862zm1.794-1.4h-.073c-.7 0-1.378-.029-2.006-.073a8.646 8.646 0 0 0-1.305-2.713 26.267 26.267 0 0 0 3.3.212 21.768 21.768 0 0 0 6.046-.766 9.21 9.21 0 0 0 1.575-.627v1.911c-3.122.084-6.338.74-7.534 2.053zm.963 1.16a.055.055 0 0 1 .007-.029c.066-.2.583-.678 2.093-1.1a19.849 19.849 0 0 1 5.2-.62h.122a20.44 20.44 0 0 1 5.616.693c1.553.467 1.918.948 1.925 1.058v.007c-.007.109-.372.613-1.991 1.094a20.26 20.26 0 0 1-5.543.686 20.345 20.345 0 0 1-5.375-.649c-1.568-.452-2-.955-2.042-1.109zm13.1 9.168a19.471 19.471 0 0 1-5.55.715 19.846 19.846 0 0 1-5.536-.693c-1.539-.474-1.86-.963-1.86-1.072v-.015l-.032-2.118a9.5 9.5 0 0 0 1.816.664 22.445 22.445 0 0 0 5.477.627 21.567 21.567 0 0 0 6.024-.766 9.346 9.346 0 0 0 1.532-.62v2.188h.007c-.003.102-.338.605-1.877 1.086zm1.882-5.368h-.007c0 .073-.044.16-.044.241 0 .1-.343.6-1.918 1.079a20.179 20.179 0 0 1-5.594.7c-4.04 0-6.761-.912-7.33-1.619l-.007-.613-.029-1.677a8.949 8.949 0 0 0 1.59.613 21.556 21.556 0 0 0 5.779.7 21.83 21.83 0 0 0 5.959-.744 8.353 8.353 0 0 0 1.6-.627z" transform="translate(0 -73.4)" style="fill:#666"/>
            </g>
        </g>
        <text data-name="₩" transform="translate(8.5 21)" style="font-size:10px;font-family:Roboto-Regular,Roboto;fill:#666"><tspan x="-3.699" y="0">₩</tspan></text>
    </g>
</svg>
