<svg height="81.25" viewBox="0 0 81.25 81.25" width="81.25"
    xmlns="http://www.w3.org/2000/svg">
    <g fill="#fff" stroke="#f2f2f2">
        <rect height="81.25" rx="40.625" stroke="none" width="81.25"/>
        <rect fill="none" height="80.25" rx="40.125" width="80.25" x=".5" y=".5"/>
    </g>
    <path d="m151.13 309.158h9.131" fill="none" stroke="#ec5363" stroke-width="1.5" transform="translate(-115.063 -250)"/>
    <path d="m151.13 309.158h18.917" fill="none" stroke="#ec5363" stroke-width="1.5" transform="translate(-119.526 -254)"/>
    <g fill="#333" stroke="#333" stroke-width=".5">
        <path d="m17.094 137.772h-3.583a.639.639 0 0 1 -.28-.065 2 2 0 0 1 -1-1.092 14.478 14.478 0 0 0 -5.954-6.815 11.633 11.633 0 0 0 -4.8-1.8 1.578 1.578 0 0 1 -1.467-1.784 13.484 13.484 0 0 1 .231-1.72 1.534 1.534 0 0 1 1.8-1.3c.431.039.861.095 1.277.149s.827.108 1.235.144c1.325.119 2.678.215 3.986.309l.177.013c2.01.145 4.034.15 6.279.141 2.817-.011 5.577-.04 8.364-.279 1.567-.134 2.873-.252 4.214-.443a1.686 1.686 0 0 1 2.172 1.571l.054.281c.057.3.114.59.165.886a1.66 1.66 0 0 1 -1.441 2.12 14.322 14.322 0 0 0 -7.786 4.677 12.13 12.13 0 0 0 -2.441 3.869 2.216 2.216 0 0 1 -.826 1.02.639.639 0 0 1 -.37.118m-3.419-1.272h3.191a.838.838 0 0 0 .227-.322 13.4 13.4 0 0 1 2.694-4.275 15.55 15.55 0 0 1 8.475-5.063c.415-.083.516-.173.433-.652-.05-.288-.106-.574-.161-.861l-.055-.284c-.118-.615-.184-.627-.737-.548-1.374.2-2.7.315-4.285.451-2.835.243-5.623.273-8.468.284-2.273.008-4.321 0-6.375-.144l-.177-.013a233.519 233.519 0 0 1 -4.008-.311c-.434-.039-.867-.1-1.286-.15-.4-.053-.821-.107-1.227-.143-.353-.031-.385.043-.433.281a12.185 12.185 0 0 0 -.209 1.557c-.021.307.049.391.359.432a12.9 12.9 0 0 1 5.33 1.994 15.707 15.707 0 0 1 6.453 7.412.747.747 0 0 0 .261.354" transform="translate(25.5 -73.771)"/>
        <path d="m9.8 24.143a7.476 7.476 0 0 1 -3.73-1.032 6.369 6.369 0 0 1 -3.38-5.877 13.435 13.435 0 0 1 1.41-5.866 58.546 58.546 0 0 0 3.726-9.645c.043-.151.1-.33.166-.51a1.829 1.829 0 0 1 2.213-1.14 1.785 1.785 0 0 1 1.224 2.127c-.091.419-.209.83-.323 1.226-.047.163-.094.327-.139.49-.139.509-.283 1.018-.427 1.526-.324 1.146-.659 2.33-.935 3.5a2.147 2.147 0 0 0 .859 2.329 23.565 23.565 0 0 1 3.881 3.584 11.831 11.831 0 0 1 1.5 2.206.766.766 0 0 0 .837.485 1.706 1.706 0 0 1 .342 0c.547.073.922-.032 1.342-.79a14.781 14.781 0 0 1 4.485-4.915c1.571-1.106 1.908-2.092 1.339-3.908-.39-1.233-.732-2.502-1.065-3.733q-.218-.806-.441-1.612l-.011-.041c-.033-.119-.071-.253-.1-.4a1.834 1.834 0 0 1 1.218-2.068 1.8 1.8 0 0 1 2.19 1.021 10.214 10.214 0 0 1 .354 1.067l.07.237a60.253 60.253 0 0 0 3.678 9.3 13.415 13.415 0 0 1 1.282 5.619 6.738 6.738 0 0 1 -5.092 6.5 8.014 8.014 0 0 1 -6.73-1.177 3.186 3.186 0 0 0 -2.417-.7.636.636 0 0 1 -.229 0 3.282 3.282 0 0 0 -2.4.693 8.824 8.824 0 0 1 -4.7 1.5m-.091-22.863a.578.578 0 0 0 -.524.4 4.502 4.502 0 0 0 -.129.4 59.792 59.792 0 0 1 -3.81 9.857 12.172 12.172 0 0 0 -1.28 5.312 5.094 5.094 0 0 0 2.737 4.755c2.236 1.269 4.631 1.121 7.116-.439a4.578 4.578 0 0 1 3.193-.887 4.5 4.5 0 0 1 3.238.909 6.783 6.783 0 0 0 5.691 1.017 5.453 5.453 0 0 0 4.149-5.231 12.172 12.172 0 0 0 -1.153-5.1 61.5 61.5 0 0 1 -3.754-9.5l-.072-.244a9.3 9.3 0 0 0 -.309-.94.516.516 0 0 0 -.629-.29.559.559 0 0 0 -.339.627c.018.1.045.189.071.283l.012.042q.226.809.443 1.621c.33 1.216.67 2.474 1.051 3.69a4.168 4.168 0 0 1 -1.822 5.33 13.517 13.517 0 0 0 -4.1 4.491 2.435 2.435 0 0 1 -2.627 1.437.548.548 0 0 0 -.093 0 2.026 2.026 0 0 1 -2.056-1.182 10.59 10.59 0 0 0 -1.346-1.968 22.34 22.34 0 0 0 -3.672-3.385 3.429 3.429 0 0 1 -1.33-3.63c.283-1.2.622-2.4.949-3.554.143-.505.286-1.01.425-1.516.046-.169.094-.337.143-.505.113-.395.22-.767.3-1.146a.517.517 0 0 0 -.334-.63.489.489 0 0 0 -.139-.02" transform="translate(23.499 18)"/>
    </g>
</svg>