<svg viewBox="0 0 58 58.01" xmlns="http://www.w3.org/2000/svg"><g fill="#d8c4b2"><path d="m56.76 21.37c0 .28 0 .56.07.83a.45.45 0 0 0 .5.26.28.28 0 0 0 .12-.36 3.76 3.76 0 0 1 -.06-1.16.54.54 0 0 1 .19-.47.83.83 0 0 0 0-1c-.09-.08-.09-.15 0-.23a1.89 1.89 0 0 0 .2-.2c.18-.18 0-.47.2-.64v-.21c-.3-.22-.43 0-.52.19a6.25 6.25 0 0 0 -.3-3c-.18.06-.42.07-.55.19s0 .39 0 .59a2.77 2.77 0 0 1 -.1.5c-.41.9-.09 1.86-.26 2.78a3.91 3.91 0 0 0 0 .49 1.06 1.06 0 0 0 .13.46l.11.11c.29.24.18.58.2.89"/><path d="m48.81 5.55c.25 0 .32-.19.34-.41h-.61c-.06.37 0 .45.27.42"/><path d="m57.08 13.9h.09a.5.5 0 0 0 0-.21h-.18c-.09 0-.18.1-.13.2s.15 0 .23 0"/><path d="m53.44 43.27-.17.24a.26.26 0 0 0 .17-.24"/><path d="m57 24.11c-.13.55-.24 1.1-.37 1.64a1.22 1.22 0 0 0 .16.91c.29.15.25.59.57.71a.49.49 0 0 0 .24-.44 3.68 3.68 0 0 1 .15-1 1.24 1.24 0 0 0 -.22-1.35c-.17-.18-.24-.44-.53-.43"/><path d="m55.53 18.19v-.05a.55.55 0 0 1 0-.18.63.63 0 0 0 -.19 0 2.88 2.88 0 0 0 -.06-.83c-.14-.63-.24-1.28-.36-1.93 0-.12-.11-.24-.17-.36a.19.19 0 0 0 -.14-.09s-.08.09-.09.14v.71l-.38-.22a1 1 0 0 1 0-.17c.19-.16.18-.31 0-.46l-.18-.39h-.08.05a.66.66 0 0 0 .15-.62.54.54 0 0 1 .23-.47 6.33 6.33 0 0 1 -.83-1.69.72.72 0 0 1 -.64 0c0-.2 0-.37-.24-.43a2.52 2.52 0 0 1 -.6-.81c.21-.19.5-.32.4-.69s0-.32.16-.35a.31.31 0 0 1 .25.13.51.51 0 0 0 .65.14c.22-.11.17-.36.18-.57a3 3 0 0 0 -1-1.7c-.16-.19-.25-.44-.42-.63l-.2.2c-.7.26-.57.78-.2 1.14.56.54.19.71-.22.94a4 4 0 0 0 -.41-.51 1.35 1.35 0 0 1 -.43-1l.24-.39a1.56 1.56 0 0 0 -1.2-.38c-.24 0-.19.22-.22.38a20.82 20.82 0 0 0 -2.49-1.27c0-.38.31-.55.41-.86h-.18a.18.18 0 0 0 -.23 0h-.19a.6.6 0 0 0 -.63 0 1.55 1.55 0 0 1 -.81.2 11 11 0 0 1 -2.06-.87c-.15-.25-.4-.25-.63-.4h-.39c-.2-.46-.62-.38-1-.42l-.46-.19c0-.17-.43-.19-.16-.48.08-.09 0-.21-.09-.26a2.22 2.22 0 0 0 -1.4-.5c-.21-.15-.5-.16-.63-.43a.33.33 0 0 1 -.17 0 11.58 11.58 0 0 0 -1.75-1 1.82 1.82 0 0 0 -1.16-.32 1.13 1.13 0 0 0 -.1-.13c-.24 0-.49-.12-.71.07h-.41a1.2 1.2 0 0 0 -.72-.14l-.25.14a1 1 0 0 0 -.83.09h-.11a.89.89 0 0 0 -.43.08 1.6 1.6 0 0 0 -1.16-.36.37.37 0 0 1 -.18 0 .19.19 0 0 0 -.1.17 4.86 4.86 0 0 0 -1.56.24 2 2 0 0 1 -1-.2c-.16-.23-.4-.15-.62-.18a.72.72 0 0 1 -.65.11 1 1 0 0 0 -1 .08c-.35 0-.72-.06-1 .21-.24 0-.49-.08-.66.18l-.78.23a1 1 0 0 0 -1 .62 8.09 8.09 0 0 0 -1.67.45 22.37 22.37 0 0 0 -3.29 1.63.64.64 0 0 1 -.19.08c-.45.25-1 .24-1.41.66a1.45 1.45 0 0 0 -.18.17 1.28 1.28 0 0 0 -1.07.45c-.13 0-.34.24-.34-.11 0-.14.1-.27.1-.4a.32.32 0 0 0 -.24-.23.28.28 0 0 0 -.26.1 2.56 2.56 0 0 0 -.39 1.29l-.2.22s0 0 0 0a.24.24 0 0 0 0-.08c-.53-.36 0-.55.11-.8.26-.46.24-.5-.28-.64-.25.23-.62.32-.82.63-.6.07-.68.6-.89 1v.12a.48.48 0 0 1 -.12 0 .3.3 0 0 0 0-.1c-.3-.72-.69-.42-1.09-.11a2.28 2.28 0 0 1 -.82 1.07c-.29.23-.6.45-.87.7-.09.08-.11.24-.16.37l-1 .86c-.13.1-.09.31-.22.42-.34.52-.88.94-.82 1.67-.64 0-.65.65-.89 1.05v.09l-.15.16c-.37-.13-.44.25-.63.44a1.66 1.66 0 0 0 -.21.9 1.69 1.69 0 0 1 -.2.8c0 .26.18.54-.1.77-.45.36-.45.9-.54 1.41q-.59 1.5-1.28 3.06v.05c-.51.08-.44.77-.74 1.08a4.45 4.45 0 0 0 -.56 1.31 9 9 0 0 0 -.46 2.52l-.41 1.08c.05.09.07.21.2.22s.12.1.13.15c.16.65 0 1.33.18 2 .05.17-.23.41-.3.64a2.66 2.66 0 0 0 0 .63c.36.69.13 1.48.37 2.2 0 .1 0 .19.07.29s.07.27.11.41.05.45.11.67l.04.19c-.15-.07-.32-.12-.33.18s0 .89 0 1.34c-.3.58 0 1.15 0 1.73s.32.81.22 1.26c.38.62.17 1.43.6 2 .08.17.17.33.24.5l.12.23a4 4 0 0 1 .32 1 1.55 1.55 0 0 0 .19.36.41.41 0 0 0 -.08.55 2 2 0 0 0 .63 1.48 2.42 2.42 0 0 1 .86 1.06.58.58 0 0 0 .52.65h.06l.2.45a1.41 1.41 0 0 0 0 .2h.14v.06l.06.09a.75.75 0 0 0 .16.15l.2.11a.46.46 0 0 0 -.19.41.41.41 0 0 0 .2-.4l.28.15a1.07 1.07 0 0 0 .33.11c0 .28-.06.59.2.81 0 .18.09.32.32.25a.93.93 0 0 1 .29 0c0 .23 0 .51.3.59s.34.38.34.66c.32.54.91.71 1.39 1a2.4 2.4 0 0 1 1.15 1.22l.81.43a1 1 0 0 0 .9.4 1.52 1.52 0 0 1 1.32.28 1.32 1.32 0 0 0 .89.17c.1.58.1.58.64.63h.19l-.27.36c.5.08.87.52 1.37.48s.51.27.75.42c.31-.35.64-.51 1-.13a.67.67 0 0 0 .68.08c.19 0 .37-.18.57-.1l.2.6c0 .28.24.51.16.81l-.44.23c-.08 0-.2 0-.15.17s.12.06.18.07a.47.47 0 0 0 .44-.19c.72-.33.74-.31.82.49v.31.45.2c.39-.12.39-.12.4-.64a.7.7 0 0 0 .08-.47.42.42 0 0 1 .24-.55h.05c0 .25.3.37.27.63a2.9 2.9 0 0 0 0 .93.57.57 0 0 0 -.08.25c.16.4.49.41.84.47a12.3 12.3 0 0 1 1.51.02h.4c.59-.09.78-.48.75-1h.29c.21.31.55.18.83.23h.4a.9.9 0 0 0 .64.3.4.4 0 0 0 .18-.07c.15.19.27 0 .4-.06l.21-.2a.09.09 0 0 0 0 .07.4.4 0 0 0 .42 0h.58c.25-.32.25-.32-.14-.48a.47.47 0 0 1 .44-.19.61.61 0 0 0 .55-.2c.46-.2.53-.32.43-.84h.12a1.55 1.55 0 0 0 2 .78l-.09.06c-.07.26-.37.21-.59.27l-1.64.18a.36.36 0 0 0 -.43.26.33.33 0 0 0 0 .14c.42 0 .86.12 1.25-.16h.59c.37 0 .76.23 1.09-.05a1.91 1.91 0 0 1 1.32-.55c.12 0 .24-.11.36-.16h.19a.55.55 0 0 0 .61-.2c.16 0 .32 0 .43-.17.45-.12.75-.55 1.22-.66a3.47 3.47 0 0 0 1.47-.86l.59-.24c.51-.31 1.21-.35 1.43-1.07s.78-.68 1.15-1l.06.07a1 1 0 0 0 .37.12 1.18 1.18 0 0 1 .36.12.59.59 0 0 0 .37 0c.16-.09.27-.2.16-.4l-.18-.18a1.53 1.53 0 0 1 1-.2.19.19 0 0 0 0 .07l.08.1a.8.8 0 0 0 .25.11c.67 0 1.3-.34 2-.28h.08a1 1 0 0 1 .22-.2h.19l.22-.2.4-.22.2-.21a.84.84 0 0 1 .4-.41.91.91 0 0 0 .47-.82 3.11 3.11 0 0 0 1.8-1.34.28.28 0 0 0 .21-.21 1.42 1.42 0 0 1 .22-.2 29.82 29.82 0 0 0 3.9-4.27 1 1 0 0 0 .16-.24 1.29 1.29 0 0 0 0-.19 19.51 19.51 0 0 0 1.29-2.27 2.91 2.91 0 0 0 .16-.5c.09-.23.18-.45-.21-.42a19.53 19.53 0 0 1 -1.26 2.75l-.16.34h-.08a1.14 1.14 0 0 0 -.38.23 3.55 3.55 0 0 0 .43-.76l.6-1.52.7-2.09c0-.09-.06-.23-.13-.26s-.13.09-.16.18l-.16.4a.39.39 0 0 0 -.18-.18h-.09l.67-3.12c.22.16.18.4.2.63s0 .47.2.62a6.19 6.19 0 0 1 .19-1.48v-.7a2.81 2.81 0 0 0 0-.5c0-.13-.06-.26 0-.37 0-.28 0-.56 0-.85a.3.3 0 0 0 0-.41v-.23a1.59 1.59 0 0 0 .22-.85c.14-.06.14-.14 0-.22s.22-.29 0-.42v-.21a.87.87 0 0 0 .16-1c-.14-.38.11-.88-.34-1.15a.55.55 0 0 1 -.23-.55 2.63 2.63 0 0 1 .13-.84c.11-.37.16-.75.24-1.13-.29-.43.05-.9-.08-1.34a7.32 7.32 0 0 1 -.1-1.48.86.86 0 0 1 -.23 0 .46.46 0 0 1 .23 0 1.41 1.41 0 0 1 0-.2v-.86a.67.67 0 0 1 0-.2v-.45-.4h.18a.67.67 0 0 0 0-.24.78.78 0 0 0 0-.14v-.15a2.5 2.5 0 0 1 .19 1.45 1.82 1.82 0 0 0 0 1.22c.23.16.19.41.2.64h.41v-3.85a3.53 3.53 0 0 0 -.3-2.17l-.13.09"/><path d="m55.6 24.23c-.05.08 0 .14.06.15s.05-.05.06-.08a1.23 1.23 0 0 1 0-.19.55.55 0 0 0 -.14.12"/><path d="m54.49 9.74c0-.05.08-.1.08-.15s0-.27-.07-.4a.33.33 0 0 0 -.16.43c0 .06.1.08.15.12"/><path d="m56.09 12.3c-.09-.3-.26-.27-.56.08a1.75 1.75 0 0 1 .47 1.41c0 .11.07.2.18.17a.22.22 0 0 0 .13-.14 2.73 2.73 0 0 0 -.23-1.52"/><path d="m17.48 55h-.2v.17l.2.21c.23 0 .49.13.66-.11s-.25-.29-.66-.29"/><path d="m50.57 6.17v-.37a.62.62 0 0 1 -.4-.22 1.56 1.56 0 0 0 -.37.1.25.25 0 0 0 -.1.15 2.38 2.38 0 0 0 .51.44c.08 0 .23-.06.35-.1"/><path d="m51.37 7.87s.09 0 .14-.08 0-.13-.09-.15a.16.16 0 0 0 -.16 0 .13.13 0 0 0 0 .17h.06"/><path d="m24.31 57.57a.09.09 0 0 0 0 .07s0 0 .06 0 0-.06 0-.08-.08-.06-.1 0"/></g></svg>