<svg height="81.25" viewBox="0 0 81.25 81.25" width="81.25" xmlns="http://www.w3.org/2000/svg"><g fill="#fff" stroke="#f2f2f2"><rect height="81.25" rx="40.625" stroke="none" width="81.25"/><rect fill="none" height="80.25" rx="40.125" width="80.25" x=".5" y=".5"/></g><g stroke-width=".5"><path d="m50.468 55.9a18.565 18.565 0 0 1 -5.491-.74.556.556 0 0 1 .355-1.055 20.536 20.536 0 0 0 10.594-.005.556.556 0 0 1 .277 1.078 23.046 23.046 0 0 1 -5.734.729" fill="#ec5363" stroke="#ec5363" transform="translate(-16.874 -19.806)"/><path d="m54.6 107.34a9.977 9.977 0 0 1 -4.861-1.089.556.556 0 0 1 .571-.955c.051.03 3.653 2.081 9.345-.043a.556.556 0 1 1 .389 1.043 15.524 15.524 0 0 1 -5.444 1.044" fill="#ec5363" stroke="#ec5363" transform="translate(-20.664 -59.562)"/><path d="m112.662 55.9a23.035 23.035 0 0 1 -5.734-.729.556.556 0 0 1 .272-1.071 20.522 20.522 0 0 0 10.593.011.556.556 0 0 1 .355 1.055 18.571 18.571 0 0 1 -5.491.74" fill="#ec5363" stroke="#ec5363" transform="translate(-65.006 -19.806)"/><path d="m112.316 107.34a15.52 15.52 0 0 1 -5.444-1.045.556.556 0 0 1 .389-1.043c5.738 2.141 9.308.065 9.343.044a.556.556 0 0 1 .572.954 9.982 9.982 0 0 1 -4.861 1.089" fill="#ec5363" stroke="#ec5363" transform="translate(-65.006 -59.562)"/><path d="m43.916 36.844a.556.556 0 0 1 -.553-.5l-3.263-34.204a.556.556 0 0 1 .439-.6l7.254-1.528a.558.558 0 0 1 .522.165l4.658 4.99a.556.556 0 0 1 .15.38v30.275a.557.557 0 0 1 -.527.556l-8.65.466zm-2.659-34.315 3.162 33.171 7.591-.409v-29.525l-4.294-4.6z" fill="#333" stroke="#333" transform="translate(-13.377 22.236)"/><path d="m8.012 38.93a.56.56 0 0 1 -.234-.051l-5.323-2.462a.556.556 0 0 1 -.3-.663l8.45-28.479a.556.556 0 0 1 1.067.317l-8.313 28.017 4.327 2 4.559-13.242a.556.556 0 1 1 1.052.362l-4.759 13.825a.556.556 0 0 1 -.526.375" fill="#333" stroke="#333" transform="translate(16.14 16.891)"/><path d="m31.572 54.864a.555.555 0 0 1 -.066 0 7.219 7.219 0 0 1 -4.489-2.632.556.556 0 0 1 .889-.67 6.182 6.182 0 0 0 3.732 2.2.556.556 0 0 1 -.065 1.109" fill="#333" stroke="#333" transform="translate(-3.119 -17.674)"/><path d="m19.874 96.977a6.262 6.262 0 0 1 -5.311-3.006.556.556 0 0 1 .979-.528 5.047 5.047 0 0 0 5.135 2.367.556.556 0 1 1 .148 1.1 7.141 7.141 0 0 1 -.952.065" fill="#333" stroke="#333" transform="translate(6.527 -50.181)"/><path d="m5.2 140.52a.556.556 0 0 1 -.225-.047l-4.643-2.046a.557.557 0 0 1 -.282-.74l.824-1.811a.557.557 0 1 1 1.013.461l-.591 1.3 3.606 1.59.43-1.033a.557.557 0 1 1 1.027.428l-.649 1.557a.557.557 0 0 1 -.514.342" fill="#333" stroke="#333" transform="translate(17.798 -83.143)"/><path d="m115.718 36.844h-.03l-8.65-.466a.556.556 0 0 1 -.526-.556v-30.275a.556.556 0 0 1 .15-.38l4.658-4.99a.558.558 0 0 1 .522-.165l7.253 1.53a.557.557 0 0 1 .439.6l-3.26 34.2a.556.556 0 0 1 -.554.5m-8.094-1.55 7.59.409 3.163-33.175-6.46-1.363-4.294 4.6z" fill="#333" stroke="#333" transform="translate(-65.007 22.236)"/></g><path d="m0 0h13v4h-13z" fill="#fff" transform="translate(34 23)"/><path d="m158.005 38.93a.556.556 0 0 1 -.526-.375l-4.759-13.825a.556.556 0 1 1 1.052-.362l4.559 13.242 4.327-2-8.314-28.019a.556.556 0 0 1 1.067-.317l8.45 28.479a.556.556 0 0 1 -.3.663l-5.323 2.462a.56.56 0 0 1 -.234.051" fill="#333" stroke="#333" stroke-width=".5" transform="translate(-100.907 16.891)"/><path d="m155.3 54.866a.556.556 0 0 1 -.065-1.109 6.185 6.185 0 0 0 3.732-2.2.556.556 0 0 1 .888.67 7.218 7.218 0 0 1 -4.489 2.632.556.556 0 0 1 -.066 0" fill="#333" stroke="#333" stroke-width=".5" transform="translate(-102.508 -17.677)"/><path d="m161.456 96.98a7.141 7.141 0 0 1 -.952-.065.556.556 0 1 1 .148-1.1 5.049 5.049 0 0 0 5.135-2.367.556.556 0 0 1 .979.529 6.263 6.263 0 0 1 -5.311 3.006" fill="#333" stroke="#333" stroke-width=".5" transform="translate(-106.607 -50.185)"/><path d="m177.558 140.521a.557.557 0 0 1 -.514-.342l-.649-1.557a.557.557 0 0 1 1.027-.428l.43 1.033 3.606-1.59-.591-1.3a.556.556 0 1 1 1.013-.461l.824 1.811a.557.557 0 0 1 -.282.74l-4.641 2.046a.556.556 0 0 1 -.225.047" fill="#333" stroke="#333" stroke-width=".5" transform="translate(-119.302 -83.144)"/><path d="m107.066 6.1a.557.557 0 0 1 -.11-1.1l6.325-1.284-2.01-2.838a.556.556 0 1 1 .908-.643l2.5 3.536a.556.556 0 0 1 -.343.867l-7.162 1.454a.576.576 0 0 1 -.111.011" fill="#ec5363" stroke="#ec5363" stroke-width=".5" transform="translate(-65.006 22.236)"/><path d="m98.123 153.993h-2.561a.556.556 0 1 1 0-1.113h2.561a.556.556 0 1 1 0 1.113" fill="#333" stroke="#333" stroke-width=".5" transform="translate(-56.062 -96.615)"/><path d="m69.152 6.1a.561.561 0 0 1 -.111-.011l-7.162-1.451a.556.556 0 0 1 -.343-.867l2.504-3.536a.557.557 0 0 1 .454-.235h12.441a.556.556 0 1 1 0 1.113h-12.153l-1.844 2.6 6.324 1.287a.557.557 0 0 1 -.11 1.1" fill="#ec5363" stroke="#ec5363" stroke-width=".5" transform="translate(-29.962 22.236)"/></svg>