<svg height="81.25" viewBox="0 0 81.25 81.25" width="81.25" xmlns="http://www.w3.org/2000/svg"><g fill="#fff" stroke="#f2f2f2"><rect height="81.25" rx="40.625" stroke="none" width="81.25"/><rect fill="none" height="80.25" rx="40.125" width="80.25" x=".5" y=".5"/></g><g transform="translate(-309 -114)"><g fill="#ec5363" stroke="#ec5363"><path d="m9.389 16.906a.524.524 0 0 1 -.3-.951c.028-.02 2.835-2.038 3.188-4.013a.524.524 0 0 1 1.031.184c-.428 2.4-3.482 4.591-3.612 4.683a.52.52 0 0 1 -.3.1" stroke-width=".4" transform="translate(331.993 124.902)"/><path d="m74.836 16.9a.52.52 0 0 1 -.3-.1c-.13-.092-3.184-2.286-3.612-4.683a.524.524 0 0 1 1.031-.184c.353 1.975 3.159 3.993 3.188 4.013a.524.524 0 0 1 -.3.951" stroke-width=".4" transform="translate(282.947 124.902)"/><g stroke-width=".5" transform="translate(339.051 171.631)"><path d="m0 0h7v1.4h-7z" stroke="none"/><path d="m.25.25h6.5v.9h-6.5z" fill="none"/></g><g stroke-width=".5" transform="translate(353.051 171.631)"><path d="m0 0h7v1.4h-7z" stroke="none"/><path d="m.25.25h6.5v.9h-6.5z" fill="none"/></g></g><path d="m6.792 53.362h-7.268a.524.524 0 0 1 -.379-.162.524.524 0 0 1 -.145-.387l1.962-40.8a.524.524 0 0 1 .523-.5h8.99a.524.524 0 0 1 .524.519l.1 10.75a.524.524 0 0 1 0 .07l-3.787 30.048a.524.524 0 0 1 -.52.458m-6.718-1.044h6.256l3.719-29.561-.092-10.2h-7.971z" fill="#333" stroke="#333" stroke-width=".4" transform="translate(339 124.902)"/><path d="m59.317 53.362h-7.268a.524.524 0 0 1 -.52-.458l-3.781-30.055a.56.56 0 0 1 0-.07l.1-10.75a.524.524 0 0 1 .524-.519h8.99a.524.524 0 0 1 .523.5l1.962 40.8a.524.524 0 0 1 -.523.549m-6.806-1.048h6.257l-1.92-39.753h-7.972l-.092 10.2z" fill="#333" stroke="#333" stroke-width=".4" transform="translate(301.261 124.902)"/><path d="m27.088 3.46h-18.134a.524.524 0 0 1 -.524-.524v-2.412a.524.524 0 0 1 .524-.524h18.134a.524.524 0 0 1 .524.524v2.412a.524.524 0 0 1 -.524.524m-17.61-1.048h17.087v-1.364h-17.087z" fill="#333" stroke="#333" stroke-width=".4" transform="translate(331.546 134)"/></g></svg>