<svg xmlns="http://www.w3.org/2000/svg" width="24" height="22" viewBox="0 0 24 22">
    <path d="M22.1 2.153A6.367 6.367 0 0 0 17.3 0a5.925 5.925 0 0 0-3.771 1.341A7.851 7.851 0 0 0 12 2.981a7.847 7.847 0 0 0-1.525-1.64A5.924 5.924 0 0 0 6.7 0a6.368 6.368 0 0 0-4.8 2.153A7.867 7.867 0 0 0 0 7.431a9.357 9.357 0 0 0 2.38 6.025 51.421 51.421 0 0 0 5.959 5.762c.826.725 1.761 1.547 2.733 2.422a1.378 1.378 0 0 0 1.855 0c.972-.876 1.908-1.7 2.734-2.423a51.392 51.392 0 0 0 5.958-5.762A9.356 9.356 0 0 0 24 7.431a7.866 7.866 0 0 0-1.9-5.278zm0 0" style="fill:#ec5363"/>
</svg>
