<svg xmlns="http://www.w3.org/2000/svg" width="14" height="14" viewBox="0 0 14 14">
    <path data-name="패스 34428" d="M1020.721 126.46h-1.2v-.671a.509.509 0 0 0-1.018 0v.671h-4.884v-.671a.509.509 0 1 0-1.018 0v.671h-1.2a2.35 2.35 0 0 0-2.343 2.343v8.135a2.349 2.349 0 0 0 2.343 2.342h9.315a2.348 2.348 0 0 0 2.342-2.342V128.8a2.349 2.349 0 0 0-2.337-2.34zm1.324 10.478a1.327 1.327 0 0 1-1.323 1.324h-9.316a1.328 1.328 0 0 1-1.324-1.324v-5.919h11.963zm0-6.938h-11.963v-1.2a1.327 1.327 0 0 1 1.324-1.324h1.2v.671a.509.509 0 1 0 1.018 0v-.671h4.884v.671a.508.508 0 0 0 .509.508.509.509 0 0 0 .508-.508v-.671h1.2a1.326 1.326 0 0 1 1.324 1.324z" transform="translate(-1009.063 -125.28)" style="fill:#555"/>
</svg>
