<svg viewBox="0 0 22 22" xmlns="http://www.w3.org/2000/svg"><path d="m9.68 1.76v6.16a1.76 1.76 0 0 1 -1.76 1.76h-6.16a1.76 1.76 0 0 1 -1.76-1.76v-6.16a1.76 1.76 0 0 1 1.76-1.76h6.16a1.76 1.76 0 0 1 1.76 1.76zm10.56-1.76h-6.16a1.76 1.76 0 0 0 -1.76 1.76v6.16a1.76 1.76 0 0 0 1.76 1.76h6.16a1.76 1.76 0 0 0 1.76-1.76v-6.16a1.76 1.76 0 0 0 -1.76-1.76zm-12.32 12.32h-6.16a1.76 1.76 0 0 0 -1.76 1.76v6.16a1.76 1.76 0 0 0 1.76 1.76h6.16a1.76 1.76 0 0 0 1.76-1.76v-6.16a1.76 1.76 0 0 0 -1.76-1.76zm9.24 0a4.84 4.84 0 1 0 4.84 4.84 4.84 4.84 0 0 0 -4.84-4.84z" fill="#de5360"/></svg>