<svg xmlns="http://www.w3.org/2000/svg" width="22" height="22" viewBox="0 0 22 22">
  <path id="tag" d="M16.68,8.76v6.16a1.76,1.76,0,0,1-1.76,1.76H8.76A1.76,1.76,0,0,1,7,14.92V8.76A1.76,1.76,0,0,1,8.76,7h6.16A1.76,1.76,0,0,1,16.68,8.76ZM27.24,7H21.08a1.76,1.76,0,0,0-1.76,1.76v6.16a1.76,1.76,0,0,0,1.76,1.76h6.16A1.76,1.76,0,0,0,29,14.92V8.76A1.76,1.76,0,0,0,27.24,7ZM14.92,19.32H8.76A1.76,1.76,0,0,0,7,21.08v6.16A1.76,1.76,0,0,0,8.76,29h6.16a1.76,1.76,0,0,0,1.76-1.76V21.08A1.76,1.76,0,0,0,14.92,19.32Zm9.24,0A4.84,4.84,0,1,0,29,24.16a4.84,4.84,0,0,0-4.84-4.84Z" transform="translate(-7 -7)" fill="#ccc"/>
</svg>
