<svg height="22" width="22" xmlns="http://www.w3.org/2000/svg" xmlns:xlink="http://www.w3.org/1999/xlink"><clipPath id="a"><path d="m0 0h22v22h-22z"/></clipPath><g clip-path="url(#a)"><g fill="#ccc" transform="translate(-2 -2)"><path d="m22.429 23a1.563 1.563 0 0 1 -1.111-.464l-1.571-1.58h-12.247a5.521 5.521 0 0 1 -5.5-5.528v-7.9a5.521 5.521 0 0 1 5.5-5.528h11a5.521 5.521 0 0 1 5.5 5.529v13.89a1.576 1.576 0 0 1 -1.571 1.581zm-14.929-19.42a3.944 3.944 0 0 0 -3.929 3.949v7.9a3.944 3.944 0 0 0 3.929 3.948h12.571a.784.784 0 0 1 .555.231l1.8 1.811v-13.89a3.944 3.944 0 0 0 -3.926-3.949z"/><path d="m8.571 15.143a1.571 1.571 0 1 1 1.571-1.571 1.571 1.571 0 0 1 -1.571 1.571z" transform="translate(-1.071 -2.094)"/><path d="m15.571 15.143a1.571 1.571 0 1 1 1.571-1.571 1.571 1.571 0 0 1 -1.571 1.571z" transform="translate(-2.571 -2.094)"/><path d="m22.571 15.143a1.571 1.571 0 1 1 1.571-1.571 1.571 1.571 0 0 1 -1.571 1.571z" transform="translate(-4.071 -2.094)"/></g></g></svg>