<svg xmlns="http://www.w3.org/2000/svg" width="25" height="18">
    <path d="M19.094 4.751a8.74 8.74 0 0 0-2.723-3.29A7.524 7.524 0 0 0 11.939 0C8.008 0 4.676 3.107 3.963 7.327A5.27 5.27 0 0 0 0 12.618 5.144 5.144 0 0 0 4.853 18h6.914v-6.813l-1.552 1.721a.683.683 0 0 1-1.036 0 .876.876 0 0 1 0-1.149l2.8-3.107a.682.682 0 0 1 1.036 0l2.8 3.107a.876.876 0 0 1 0 1.149.683.683 0 0 1-1.036 0l-1.552-1.721V18h5.793c3.299 0 5.98-2.972 5.98-6.625 0-3.627-2.642-6.583-5.9-6.624zm0 0" transform="translate(.001)" style="fill:#fff"/>
</svg>
