<svg xmlns="http://www.w3.org/2000/svg" width="33.655" height="30" viewBox="0 0 33.655 30">
    <g data-name="그룹 60188">
        <path data-name="패스 34439" d="m194.685 37.631-20.612-4.362a1.625 1.625 0 0 0-1.921 1.25l-.392 2.517 23.783 5.033.392-2.517a1.625 1.625 0 0 0-1.25-1.921z" transform="translate(-162.314 -33.234)" style="fill:#666"/>
        <path data-name="패스 34440" d="M23.7 169.135A1.641 1.641 0 0 0 21.689 168l-3.913 1.086-9.225-1.956-1.015 4.793-6.336 1.76A1.641 1.641 0 0 0 .059 175.7l3.572 12.873a1.641 1.641 0 0 0 2.014 1.139l20.491-5.686a1.641 1.641 0 0 0 1.139-2.014l-.613-2.21 2.3.486a1.625 1.625 0 0 0 1.921-1.25l1.454-6.871-8.278-1.752zm2.366 6.542.507-2.4a.669.669 0 0 1 .79-.514l2.4.507a.669.669 0 0 1 .515.79l-.507 2.4a.669.669 0 0 1-.79.514l-2.4-.507a.669.669 0 0 1-.513-.79zm-24.514-.71 5.671-1.573 13.38-3.713 1.44-.4a.3.3 0 0 1 .078-.01.309.309 0 0 1 .294.221l.169.609.53 1.908-21.071 5.848-.7-2.517a.307.307 0 0 1 .211-.373zm24.435 7.4a.308.308 0 0 1-.21.372l-20.49 5.686a.3.3 0 0 1-.078.011.31.31 0 0 1-.294-.221L2.833 180.7l21.072-5.848 1.285 4.631z" transform="translate(0 -159.767)" style="fill:#666"/>
        <path data-name="패스 34441" d="M92.759 445.09a.669.669 0 0 0-.821-.464l-2.393.664a.669.669 0 0 0-.464.821l.664 2.393a.668.668 0 0 0 .821.464l2.393-.664a.669.669 0 0 0 .464-.821z" transform="translate(-84.16 -421.979)" style="fill:#666"/>
    </g>
</svg>
