<svg height="22" viewBox="0 0 20 22" width="20" xmlns="http://www.w3.org/2000/svg" xmlns:xlink="http://www.w3.org/1999/xlink"><clipPath id="a"><path d="m0 0h20v22h-20z"/></clipPath><g clip-path="url(#a)"><path d="m18 5.238v-.225a2.7 2.7 0 0 0 -2-2.613l-.026-.005a2.626 2.626 0 0 0 -2.546-2.395h-6.857a2.627 2.627 0 0 0 -2.545 2.394l-.026.006a2.7 2.7 0 0 0 -2 2.613v.225a4.072 4.072 0 0 0 -2 3.511v9.173a4.039 4.039 0 0 0 4 4.078h12a4.039 4.039 0 0 0 4-4.077v-9.174a4.072 4.072 0 0 0 -2-3.511m-11.429-3.433h6.858a.864.864 0 0 1 .758.5h-8.374a.864.864 0 0 1 .758-.5m7.429 16.138h-8a1.019 1.019 0 0 1 0-2.043h8a1.019 1.019 0 0 1 0 2.039m2-13.267h-12c-.054 0-.1.014-.157.016a.883.883 0 0 1 .824-.579h.143a.632.632 0 0 0 .088.013.449.449 0 0 0 .053-.013h10.383a.882.882 0 0 1 .823.579c-.053 0-.1-.016-.157-.016" fill="#ec5363"/></g></svg>