<svg xmlns="http://www.w3.org/2000/svg" width="22" height="20">
    <path d="M20.255 1.957A5.858 5.858 0 0 0 15.855 0 5.46 5.46 0 0 0 12.4 1.219 7.161 7.161 0 0 0 11 2.71a7.157 7.157 0 0 0-1.4-1.491A5.459 5.459 0 0 0 6.146 0a5.858 5.858 0 0 0-4.4 1.957A7.116 7.116 0 0 0 0 6.756a8.467 8.467 0 0 0 2.182 5.477 46.961 46.961 0 0 0 5.462 5.239c.757.659 1.615 1.406 2.505 2.2a1.271 1.271 0 0 0 1.7 0c.891-.8 1.749-1.543 2.506-2.2a46.934 46.934 0 0 0 5.462-5.238A8.466 8.466 0 0 0 22 6.756a7.115 7.115 0 0 0-1.745-4.8zm0 0" style="fill:#ccc"/>
</svg>
