<svg height="22" width="22" xmlns="http://www.w3.org/2000/svg"><path d="m526.721 1063.9-9.278-7.2a.721.721 0 0 0 -.886 0l-9.278 7.2a.722.722 0 0 0 -.278.568v11.308a2.783 2.783 0 0 0 2.784 2.777h14.433a2.784 2.784 0 0 0 2.784-2.777v-11.308a.72.72 0 0 0 -.281-.568zm-7.5 13.212h-4.44v-8.338h4.44zm6.337-1.336a1.34 1.34 0 0 1 -1.34 1.336h-3.554v-9.058a.721.721 0 0 0 -.722-.719h-5.883a.72.72 0 0 0 -.722.719v9.058h-3.553a1.34 1.34 0 0 1 -1.34-1.336v-10.955l8.557-6.637 8.557 6.637z" fill="#ccc" transform="translate(-506 -1056.551)"/></svg>