<svg height="22.002" width="22" xmlns="http://www.w3.org/2000/svg" xmlns:xlink="http://www.w3.org/1999/xlink"><clipPath id="a"><path d="m1 0h22v22.002h-22z"/></clipPath><g clip-path="url(#a)" transform="translate(-1)"><path d="m681.041 358.985v-11.308a.723.723 0 0 0 -.281-.568l-9.278-7.2a.719.719 0 0 0 -.424-.149h-.038a.719.719 0 0 0 -.424.149l-9.278 7.2a.722.722 0 0 0 -.278.568v11.308a2.781 2.781 0 0 0 2.765 2.775h4.464v-9.333a.6.6 0 0 1 .6-.6h4.34a.6.6 0 0 1 .6.6v9.333h4.467a2.783 2.783 0 0 0 2.765-2.775z" fill="#ec5363" transform="translate(-659.04 -339.76)"/></g></svg>