<svg xmlns="http://www.w3.org/2000/svg" width="21.997" height="21.999" viewBox="0 0 21.997 21.999">
    <path d="M21.406 9.568 12.43.593a2.025 2.025 0 0 0-2.864 0L.6 9.561l-.009.009a2.024 2.024 0 0 0 1.348 3.45h.42v6.6A2.373 2.373 0 0 0 4.726 22h3.511a.645.645 0 0 0 .644-.644v-5.18a1.083 1.083 0 0 1 1.081-1.081h2.071a1.083 1.083 0 0 1 1.081 1.081v5.177a.644.644 0 0 0 .646.647h3.51a2.373 2.373 0 0 0 2.37-2.37v-6.6h.332a2.025 2.025 0 0 0 1.433-3.456zm0 0" transform="translate(0 .001)" style="fill:#ccc"/>
</svg>
