<svg height="81.25" viewBox="0 0 81.25 81.25" width="81.25" xmlns="http://www.w3.org/2000/svg"><g fill="#fff" stroke="#f2f2f2"><rect height="81.25" rx="40.625" stroke="none" width="81.25"/><rect fill="none" height="80.25" rx="40.125" width="80.25" x=".5" y=".5"/></g><g stroke-width=".7"><path d="m83.363 347.788h-8.036a.671.671 0 0 1 -.67-.67v-6.2a.295.295 0 0 0 -.589 0v6.2a1.261 1.261 0 0 0 1.259 1.259h8.036a.295.295 0 0 0 0-.589z" fill="#333" stroke="#333" transform="translate(-45.655 -292.546)"/><path d="m22.143 18.115v-8.283l1.18-.591a1.771 1.771 0 0 0 .977-1.723l.852.231a1.973 1.973 0 0 0 2.454-1.549l.67-3.664a1.69 1.69 0 0 0 -.222-1.19l2.211.789a4.107 4.107 0 0 1 2.375 2.218l3.131 7.175-3.711 1.045v-5.209a.295.295 0 1 0 -.589 0v10.216a.295.295 0 0 0 .589 0v-2.037l4.049-1.121a1.259 1.259 0 0 0 .818-1.717l-.482-1.105-3.264-7.483a4.681 4.681 0 0 0 -2.718-2.537l-3.773-1.346a3.992 3.992 0 0 0 -1.342-.234h-7a3.993 3.993 0 0 0 -1.342.233l-3.772 1.347a4.681 4.681 0 0 0 -2.717 2.537l-3.274 7.5-.473 1.083a1.259 1.259 0 0 0 .818 1.717l4.049 1.121v1.119a.295.295 0 0 0 .589 0v-9.3a.295.295 0 1 0 -.589 0v5.211l-3.72-1.018 3.14-7.2a4.107 4.107 0 0 1 2.375-2.218l2.211-.789a1.69 1.69 0 0 0 -.222 1.19l.67 3.664a1.972 1.972 0 0 0 2.457 1.549l.852-.231a1.771 1.771 0 0 0 .974 1.723l1.18.591v8.283a.295.295 0 0 0 .589 0zm14.244-5.175a.67.67 0 0 1 -.435.914l-3.892 1.078v-1.747l3.949-1.112zm-24.75.246v1.745l-3.892-1.077a.67.67 0 0 1 -.435-.914l.369-.845zm14.537-12.031a1.7 1.7 0 0 0 -.156-.5 3.408 3.408 0 0 1 .475.132l.344.123.544.528a1.1 1.1 0 0 1 .317.991l-.67 3.664a1.383 1.383 0 0 1 -1.728 1.087l-.959-.26a.514.514 0 0 0 -.643.568 1.183 1.183 0 0 1 -.642 1.226l-.916.459v-1.579l3.732-5.2a1.681 1.681 0 0 0 .3-1.238zm-4.62 8.018-.916-.459a1.183 1.183 0 0 1 -.638-1.226.514.514 0 0 0 -.643-.568l-.959.26a1.383 1.383 0 0 1 -1.723-1.086l-.675-3.664a1.1 1.1 0 0 1 .317-.991l.544-.528.344-.123a3.409 3.409 0 0 1 .475-.131 1.694 1.694 0 0 0 .141 1.737l3.732 5.2zm-3.254-7.123a1.094 1.094 0 0 1 .159-1.46h6.78a1.094 1.094 0 0 1 .161 1.46l-3.551 4.944z" fill="#333" stroke="#333" transform="translate(16.776 22.949)"/><path d="m232.9 267.346-1.725-13.625a1.262 1.262 0 0 0 -1.249-1.1h-13.126a1.262 1.262 0 0 0 -1.249 1.1l-1.725 13.625a1.066 1.066 0 0 0 .933 1.193l6.7.79a1.08 1.08 0 0 0 1.183-.85l.256-1.213.465-2.2.465 2.2.256 1.213a1.08 1.08 0 0 0 1.183.85l6.7-.79a1.066 1.066 0 0 0 .933-1.193zm-10.832 1.011a.489.489 0 0 1 -.538.386l-6.7-.79a.477.477 0 0 1 -.417-.534l.111-.873 7.732.911zm10.15-.583a.474.474 0 0 1 -.32.18l-6.7.79a.489.489 0 0 1 -.538-.386l-.19-.9 4.836-.57a.295.295 0 1 0 -.069-.585l-4.889.576-.691-3.272v-2.04a.295.295 0 1 0 -.589 0v2.04l-.691 3.272-7.78-.917 1.353-10.691h3.95a.295.295 0 1 0 0-.589h-3.879l.112-.887a.671.671 0 0 1 .665-.586h13.122a.671.671 0 0 1 .665.586l.112.887h-9.422a.295.295 0 1 0 0 .589h9.5l1.353 10.691-1.42.167a.295.295 0 0 0 .034.587h.035l1.425-.168.111.873a.474.474 0 0 1 -.099.353z" fill="#ec5363" stroke="#ec5363" transform="translate(-175.096 -211.035)"/><path d="m20.725 239.542a3.542 3.542 0 0 0 -2.646-1.184h-7.687a3.687 3.687 0 0 0 -2.5.97 3.475 3.475 0 0 0 -1.141 2.409 3.548 3.548 0 0 0 6.708 1.781.819.819 0 0 1 .732-.427.858.858 0 0 1 .748.475 3.549 3.549 0 1 0 5.783-4.024zm.3 2.708a2.959 2.959 0 0 1 -5.558 1.04 1.429 1.429 0 0 0 -2-.593 1.349 1.349 0 0 0 -.527.553 2.96 2.96 0 0 1 -5.594-1.486 3 3 0 0 1 3.049-2.817h7.687a2.962 2.962 0 0 1 2.942 3.3z" fill="#333" stroke="#333" transform="translate(16.698 -197.825)"/><path d="m37.391 277.4a.3.3 0 0 0 -.357.215 1.249 1.249 0 0 1 -2.423 0 .295.295 0 1 0 -.572.142 1.838 1.838 0 0 0 3.567 0 .3.3 0 0 0 -.215-.357z" fill="#333" stroke="#333" transform="translate(-8.571 -233.979)"/><path d="m135.949 277.4a.3.3 0 0 0 -.357.215 1.249 1.249 0 0 1 -2.423 0 .295.295 0 1 0 -.572.142 1.838 1.838 0 0 0 3.567 0 .3.3 0 0 0 -.215-.357z" fill="#333" stroke="#333" transform="translate(-99.858 -233.979)"/></g></svg>