<svg xmlns="http://www.w3.org/2000/svg"
  xmlns:xlink="http://www.w3.org/1999/xlink" width="10" height="17" viewBox="0 0 10 17">
  <defs>
    <clipPath id="clip-path">
      <rect x="0.15" y="-3" width="10" height="18.5" fill="none"/>
    </clipPath>
  </defs>
  <g id="위치" transform="translate(-0.15 3)" clip-path="url(#clip-path)" style="isolation: isolate">
    <g id="location" transform="translate(0.15 0.421)">
      <g id="그룹_8460" data-name="그룹 8460">
        <path id="패스_11407" data-name="패스 11407" d="M447.863,799.782h0a5.081,5.081,0,0,0-7.072,0,4.816,4.816,0,0,0-1.464,3.47c0,2.644,2.538,4.837,3.906,6.019.171.147.347.3.481.422a.915.915,0,0,0,1.225,0c.122-.112.274-.243.451-.4l.038-.033c1.363-1.178,3.9-3.37,3.9-6.013A4.861,4.861,0,0,0,447.863,799.782Zm-2.956,8.915-.007.006c-.19.165-.355.307-.492.432a.121.121,0,0,1-.162,0c-.141-.129-.314-.279-.5-.438-1.272-1.1-3.641-3.144-3.641-5.445a4.222,4.222,0,0,1,8.443,0C448.549,805.554,446.18,807.6,444.907,808.7Zm.03.034Z" transform="translate(-439.327 -798.35)" fill="#999"/>
        <path id="패스_11408" data-name="패스 11408" d="M450.485,806.726a2.184,2.184,0,1,0,2.184,2.184A2.187,2.187,0,0,0,450.485,806.726Zm0,3.605a1.421,1.421,0,1,1,1.421-1.421A1.423,1.423,0,0,1,450.485,810.331Z" transform="translate(-445.485 -804.193)" fill="#999"/>
      </g>
    </g>
  </g>
</svg>
