<svg height="17" width="10" xmlns="http://www.w3.org/2000/svg" xmlns:xlink="http://www.w3.org/1999/xlink"><clipPath id="a"><path d="m.15-3h10v17h-10z"/></clipPath><g clip-path="url(#a)" fill="#999" transform="translate(-.15 3)"><path d="m447.863 799.782a5.081 5.081 0 0 0 -7.072 0 4.816 4.816 0 0 0 -1.464 3.47c0 2.644 2.538 4.837 3.906 6.019.171.147.347.3.481.422a.915.915 0 0 0 1.225 0c.122-.112.274-.243.451-.4l.038-.033c1.363-1.178 3.9-3.37 3.9-6.013a4.861 4.861 0 0 0 -1.465-3.465zm-2.956 8.915-.007.006c-.19.165-.355.307-.492.432a.121.121 0 0 1 -.162 0 20.71 20.71 0 0 0 -.5-.438c-1.272-1.1-3.641-3.144-3.641-5.445a4.222 4.222 0 0 1 8.443 0c.001 2.302-2.368 4.348-3.641 5.448z" transform="translate(-439.177 -797.929)"/><path d="m450.485 806.726a2.184 2.184 0 1 0 2.184 2.184 2.187 2.187 0 0 0 -2.184-2.184zm0 3.605a1.421 1.421 0 1 1 1.421-1.421 1.423 1.423 0 0 1 -1.421 1.421z" transform="translate(-445.335 -803.772)"/></g></svg>