<svg height="20" viewBox="0 0 18 20" width="18" xmlns="http://www.w3.org/2000/svg"><path d="m348 562v-2a8 8 0 0 0 -16 0v2" fill="none" transform="translate(-331 -551)"/><path d="m390.334 565.982a3.067 3.067 0 0 1 -.334.018h-2a1 1 0 0 1 -1-1v-6a1 1 0 0 1 1-1h2.929a7 7 0 0 0 -13.858 0h2.929a1 1 0 0 1 1 1v6a1 1 0 0 1 -1 1h-2a3 3 0 0 1 -3-3v-4a9 9 0 0 1 18 0v4.02a8.98 8.98 0 0 1 -3.049 6.73 1 1 0 0 1 -.662.25h-5.289a1 1 0 0 1 0-2h4.9a7.012 7.012 0 0 0 1.434-2.018z" fill="#333" fill-rule="evenodd" transform="translate(-375 -550)"/></svg>