<svg height="21.306" viewBox="0 0 21.307 21.306" width="21.307" xmlns="http://www.w3.org/2000/svg"><g fill="#333" stroke="#333" stroke-width=".3" transform="translate(-513.459 -849.038)"><path d="m534.391 859.145a.774.774 0 0 0 -.55-.231.78.78 0 0 0 -.78.778 8.99 8.99 0 0 1 -8.967 9.014h-.033a8.982 8.982 0 0 1 -.032-17.963h.033a9.031 9.031 0 0 1 5.648 1.989l.431.346h-2.164a.778.778 0 1 0 0 1.556h3.905a.78.78 0 0 0 .78-.778v-3.891a.78.78 0 0 0 -1.559 0v1.9l-.319-.262a10.472 10.472 0 1 0 3.833 8.092.77.77 0 0 0 -.226-.55z"/><path d="m525.072 854.981a.764.764 0 1 0 -1.526 0v5.954a.8.8 0 0 0 .223.561l2.864 2.974a.749.749 0 0 0 .539.245.672.672 0 0 0 .543-.223.814.814 0 0 0 .019-1.122l-2.662-2.767z" transform="translate(-.199 -.227)"/></g></svg>