<svg height="22.004" width="22"
    xmlns="http://www.w3.org/2000/svg">
    <g fill="#ccc" transform="translate(-286.232 -410.331)">
        <path d="m297.027 421.931a5.8 5.8 0 1 0 -5.8-5.8 5.807 5.807 0 0 0 5.8 5.8zm0-10.3a4.5 4.5 0 1 1 -4.5 4.5 4.505 4.505 0 0 1 4.5-4.501z"/>
        <path d="m306.185 427.438-.023-.321q-.049-.479-.136-.954l-.011-.06a9.969 9.969 0 0 0 -.336-1.344 6.413 6.413 0 0 0 -.473-1.089l-.087-.159a4.712 4.712 0 0 0 -.855-1.087 3.7 3.7 0 0 0 -1.216-.748 4.246 4.246 0 0 0 -1.517-.277l-.1.007a1.6 1.6 0 0 0 -.79.344c-.254.162-.549.348-.88.555a5.144 5.144 0 0 1 -1.152.5 4.5 4.5 0 0 1 -2.784 0 5.177 5.177 0 0 1 -1.136-.492c-.326-.2-.62-.389-.876-.552a1.594 1.594 0 0 0 -.793-.345l-.1-.006a4.267 4.267 0 0 0 -1.507.278 3.748 3.748 0 0 0 -1.226.756 4.752 4.752 0 0 0 -.845 1.079l-.087.158a6.636 6.636 0 0 0 -.471 1.092 10.625 10.625 0 0 0 -.342 1.338 12.45 12.45 0 0 0 -.174 1.336c-.029.4-.043.821-.043 1.245a3.489 3.489 0 0 0 1.075 2.668 3.84 3.84 0 0 0 2.548.975l.153-.009h10.416a3.877 3.877 0 0 0 2.749-.991 3.5 3.5 0 0 0 1.058-2.65q.005-.648-.039-1.247zm-1.463 2.214a2.09 2.09 0 0 1 -.473.716 2.537 2.537 0 0 1 -1.8.631h-10.471a2.483 2.483 0 0 1 -1.752-.612 2.1 2.1 0 0 1 -.494-.734 2.246 2.246 0 0 1 -.152-.952c0-.392.014-.779.04-1.149a11.028 11.028 0 0 1 .155-1.188 9.363 9.363 0 0 1 .3-1.169 5.359 5.359 0 0 1 .446-1l.053-.093a3.342 3.342 0 0 1 .541-.683 2.385 2.385 0 0 1 .779-.479 2.891 2.891 0 0 1 .968-.189.307.307 0 0 1 .117.069l.1.066c.261.167.563.36.93.584a6.357 6.357 0 0 0 1.414.613 5.811 5.811 0 0 0 3.588.005 6.57 6.57 0 0 0 1.471-.642c.335-.209.634-.4.928-.586l.087-.067a.26.26 0 0 1 .089-.046 2.906 2.906 0 0 1 .976.188 2.385 2.385 0 0 1 .77.471 3.316 3.316 0 0 1 .525.638l.086.147a5.046 5.046 0 0 1 .447.991 8.972 8.972 0 0 1 .281 1.11l.011.066c.056.3.1.6.131.9l.021.289c.027.371.041.755.041 1.209a2.118 2.118 0 0 1 -.153.896z"/>
    </g>
</svg>