<svg height="22.004" viewBox="0 0 18.005 22.004" width="18.005" xmlns="http://www.w3.org/2000/svg"><g fill="#ec5363" transform="translate(-661.603 -238.262)"><path d="m670.4 249.862a5.8 5.8 0 1 0 -5.8-5.8 5.8 5.8 0 0 0 5.8 5.8z"/><path d="m679.565 255.369-.023-.321q-.05-.479-.136-.954l-.011-.06a9.893 9.893 0 0 0 -.336-1.344 6.41 6.41 0 0 0 -.473-1.089l-.087-.159a4.734 4.734 0 0 0 -.855-1.087 3.678 3.678 0 0 0 -1.216-.748 4.267 4.267 0 0 0 -1.517-.277l-.1.007a1.617 1.617 0 0 0 -.79.344c-.254.162-.549.348-.88.555a5.156 5.156 0 0 1 -1.151.5 4.489 4.489 0 0 1 -2.784 0 5.09 5.09 0 0 1 -1.136-.492c-.326-.2-.62-.389-.876-.552a1.606 1.606 0 0 0 -.793-.345l-.1-.006a4.263 4.263 0 0 0 -1.507.278 3.772 3.772 0 0 0 -1.226.756 4.745 4.745 0 0 0 -.845 1.079l-.087.158a6.51 6.51 0 0 0 -.471 1.092 10.5 10.5 0 0 0 -.343 1.338 12.263 12.263 0 0 0 -.174 1.336c-.029.4-.042.821-.042 1.245a3.482 3.482 0 0 0 1.075 2.668 3.834 3.834 0 0 0 2.547.975l.154-.009h10.418a3.869 3.869 0 0 0 2.749-.991 3.5 3.5 0 0 0 1.058-2.65q.002-.648-.042-1.247z"/></g></svg>