<svg height="21.601" viewBox="0 0 22.556 21.601" width="22.556" xmlns="http://www.w3.org/2000/svg"><g fill="#333" stroke="#333" stroke-width=".6"><path d="m36.314 42.309a.314.314 0 0 1 -.314-.309v-9.619a.314.314 0 0 1 .22-.3l8.438-2.635a.314.314 0 1 1 .188.6l-8.218 2.566v8.958l7.81-2.378v-6.384a.314.314 0 1 1 .627 0v6.618a.314.314 0 0 1 -.223.314l-8.442 2.569a.289.289 0 0 1 -.091 0z" transform="translate(-25.032 -21.012)"/><path d="m17.851 42.309a.289.289 0 0 1 -.091 0l-8.438-2.582a.314.314 0 0 1 -.223-.314v-6.605a.314.314 0 0 1 .627 0v6.386l7.81 2.378v-8.959l-8.217-2.566a.314.314 0 0 1 .188-.6l8.438 2.635a.314.314 0 0 1 .22.3v9.618a.314.314 0 0 1 -.314.309z" transform="translate(-6.569 -21.012)"/><path d="m15.174 31.331a.314.314 0 0 1 -.229-.1l-1.967-2.073-1.957 2.073a.314.314 0 0 1 -.314.085l-8.484-2.56a.314.314 0 0 1 -.138-.514l2.2-2.368a.314.314 0 0 1 .166-.113l6.176-1.675a.314.314 0 0 1 .166.605l-6.08 1.653-1.825 1.956 7.81 2.359 2.051-2.174a.314.314 0 0 1 .458 0l2.051 2.174 7.81-2.359-1.826-1.96-6.088-1.65a.314.314 0 0 1 .166-.605l6.18 1.678a.314.314 0 0 1 .173.119l2.2 2.362a.314.314 0 0 1 -.132.511l-8.469 2.56a.289.289 0 0 1 -.091.016z" transform="translate(-1.697 -17.333)"/><path d="m26.7 12.781a.314.314 0 0 1 -.2-.072c-.182-.144-4.5-3.736-4.5-6.2a2.9 2.9 0 0 1 2.821-2.969 2.732 2.732 0 0 1 1.882.772 2.732 2.732 0 0 1 1.882-.768 2.9 2.9 0 0 1 2.823 2.964c0 2.472-4.329 6.063-4.511 6.214a.314.314 0 0 1 -.197.059zm-1.882-8.62a2.274 2.274 0 0 0 -2.2 2.346c0 1.713 2.779 4.448 4.078 5.561 1.3-1.12 4.078-3.855 4.078-5.561a2.274 2.274 0 0 0 -2.2-2.34 2.142 2.142 0 0 0 -1.644.8.314.314 0 0 1 -.483 0 2.142 2.142 0 0 0 -1.626-.806z" transform="translate(-15.422 -3.24)"/></g></svg>