<svg height="21" viewBox="0 0 30 21" width="30" xmlns="http://www.w3.org/2000/svg"><g fill="#333"><path d="m3.789 16.579h4.737a.789.789 0 1 0 0-1.579h-4.737a.789.789 0 1 0 0 1.579z" transform="translate(-3 -10.841)"/><path d="m4 19.789a.746.746 0 0 0 .789.789h5.526a.789.789 0 1 0 0-1.579h-5.526a.746.746 0 0 0 -.789.79z" transform="translate(-3.211 -12.068)"/><path d="m9.316 23.789a.746.746 0 0 0 -.79-.789h-4.737a.789.789 0 1 0 0 1.579h4.737a.746.746 0 0 0 .79-.79z" transform="translate(-3 -13.295)"/><path d="m32.728 25.791v-4.9a2.052 2.052 0 0 0 -2.08-2.1.15.15 0 0 1 -.139-.14l-1.109-5.103v-.07a1.491 1.491 0 0 0 -1.317-.979h-6.446v-.7a2.794 2.794 0 0 0 -2.773-2.799h-12.478a1.4 1.4 0 0 0 -1.386 1.4v1.4a.658.658 0 0 0 .693.7.658.658 0 0 0 .693-.7v-1.4h12.478a1.4 1.4 0 0 1 1.386 1.4v13.991h-6.308a3.518 3.518 0 0 0 -4.09-2.729 3.452 3.452 0 0 0 -2.634 2.589 1.2 1.2 0 0 1 -.832-1.119v-2.939a.658.658 0 0 0 -.693-.7.658.658 0 0 0 -.693.7v2.938a2.62 2.62 0 0 0 2.149 2.589 3.461 3.461 0 0 0 4.021 2.8 3.5 3.5 0 0 0 2.773-2.729h8.457a3.461 3.461 0 0 0 6.793 0h3.535a.7.7 0 0 0 0-1.4zm-22.182 2.8a2.1 2.1 0 1 1 2.08-2.1 2.052 2.052 0 0 1 -2.08 2.099zm15.25 0a2.1 2.1 0 1 1 2.08-2.1 2.052 2.052 0 0 1 -2.076 2.099zm5.546-2.8h-2.149a3.461 3.461 0 0 0 -6.793 0h-.763v-11.891h6.447l1.04 4.9h-4.715a.7.7 0 0 0 0 1.4h6.239a.658.658 0 0 1 .693.7z" transform="translate(-3.421 -9)"/></g></svg>