<svg xmlns="http://www.w3.org/2000/svg" width="19.595" height="17.481" viewBox="0 0 19.595 17.481">
    <g data-name="그룹 59856">
        <g data-name="그룹 59855">
            <path data-name="패스 34371" d="M168.356 58.2h-5.145a2.967 2.967 0 0 1-2.931-3v-8.9h11.008v8.9a2.967 2.967 0 0 1-2.932 3z" transform="translate(-153.139 -46.3)" style="fill-rule:evenodd;fill:#fab922"/>
            <path data-name="패스 34372" d="M227.045 46.3v4.516l-2.188-1.728-2.187 1.728V46.3z" transform="translate(-212.213 -46.3)" style="fill:#fff;fill-rule:evenodd"/>
            <g data-name="그룹 59854">
                <path data-name="패스 34373" d="M213.12 264.934q.4 0 .753-.034z" transform="translate(-203.17 -253.28)" style="fill:#fdd3b4;fill-rule:evenodd"/>
                <path data-name="패스 34374" d="M96.267 198.3c-.334 1.251-4.975 3.83-6.515 4.175a8.881 8.881 0 0 1-4.427.151 3.461 3.461 0 0 0-2.965.811l-2.791-4.288c1.825-.628 2.769-2.6 4.29-2.951a2.078 2.078 0 0 1 .469-.053c1.052 0 2.288 1.15 4.026.973 1.829-.185 2.313 1.209 1.03 2.069a4.251 4.251 0 0 1-1.963.612 11.26 11.26 0 0 0 2.843-.612c2.037-.659 4.077-1.62 4.292-1.692.108-.037.212-.068.311-.092 1.056-.275 1.62.068 1.4.897z" transform="translate(-76.719 -188.175)" style="fill:#fdd3b4;fill-rule:evenodd"/>
            </g>
            <path data-name="패스 34375" d="m32.138 246.185-2.688 1.749-3.51-5.395 2.688-1.749.611.939L31.5 245.2z" transform="translate(-25.94 -230.452)" style="fill:#ff4b5e;fill-rule:evenodd"/>
        </g>
    </g>
</svg>
