<svg xmlns="http://www.w3.org/2000/svg" width="26" height="26" viewBox="0 0 26 26">
    <path data-name="패스 34400" d="M13 0a13 13 0 1 0 13 13A13.015 13.015 0 0 0 13 0zm0 24.059A11.059 11.059 0 1 1 24.059 13 11.071 11.071 0 0 1 13 24.059z" style="fill:#666"/>
    <path data-name="패스 34401" d="M73.769 54.809H69.6a1.1 1.1 0 0 0-1.1 1.1v10.042a1.1 1.1 0 1 0 2.2 0v-3.92h3.07a3.611 3.611 0 1 0 0-7.222zm0 5.021H70.7v-2.82h3.07a1.41 1.41 0 1 1 0 2.82z" transform="translate(-59.523 -47.93)" style="fill:#666"/>
</svg>
