<svg xmlns="http://www.w3.org/2000/svg" width="16" height="16" viewBox="0 0 16 16">
    <path data-name="패스 17518" d="M566.61 1215.871a1.928 1.928 0 0 0 .458-1.925 1.83 1.83 0 0 0-1.46-1.28l-3-.457a.662.662 0 0 1-.475-.4l-1.34-2.8a1.781 1.781 0 0 0-2.44-.85 1.863 1.863 0 0 0-.812.85l-1.34 2.8a.655.655 0 0 1-.5.375l-3 .457a1.831 1.831 0 0 0-1.465 1.295 1.927 1.927 0 0 0 .487 1.933l2.169 2.193a.707.707 0 0 1 .189.594l-.509 3.1a1.893 1.893 0 0 0 .716 1.836 1.786 1.786 0 0 0 1.065.363 1.707 1.707 0 0 0 .841-.22l2.685-1.462a.636.636 0 0 1 .618 0l2.679 1.462a1.752 1.752 0 0 0 1.907-.141 1.911 1.911 0 0 0 .721-1.839l-.509-3.1a.707.707 0 0 1 .189-.594z" transform="translate(-551.157 -1207.959)" style="fill:#ffbe3f"/>
</svg>
