<svg height="13.067" viewBox="0 0 12.783 13.067" width="12.783" xmlns="http://www.w3.org/2000/svg"><g fill="#f84457"><path d="m239.73 0a.426.426 0 0 0 -.426.426v.852a.426.426 0 1 0 .852 0v-.852a.426.426 0 0 0 -.426-.426z" transform="translate(-233.339)"/><path d="m6.843 233.739h-.852a.426.426 0 0 0 0 .852h.852a.426.426 0 0 0 0-.852z" transform="translate(-5.565 -227.774)"/><path d="m440.93 233.739h-.852a.426.426 0 0 0 0 .852h.852a.426.426 0 0 0 0-.852z" transform="translate(-428.574 -227.774)"/><path d="m382.3 68.588a.426.426 0 0 0 -.6 0l-.6.6a.426.426 0 0 0 .6.6l.6-.6a.426.426 0 0 0 0-.6z" transform="translate(-371.386 -66.716)"/><path d="m75.352 69.19-.6-.6a.426.426 0 0 0 -.6.6l.6.6a.426.426 0 0 0 .6-.6z" transform="translate(-72.275 -66.716)"/><path d="m81.3 434.087h-8.526a.426.426 0 0 0 -.426.426v1.136a.426.426 0 0 0 .426.426h8.526a.426.426 0 0 0 .426-.426v-1.136a.426.426 0 0 0 -.426-.426z" transform="translate(-70.644 -423.009)"/><path d="m109.574 100.174a3.839 3.839 0 0 0 -3.835 3.835v3.835h7.67v-3.835a3.839 3.839 0 0 0 -3.835-3.835zm1.7 4.261a.426.426 0 0 1 -.426-.426 1.28 1.28 0 0 0 -1.278-1.278.426.426 0 0 1 0-.852 2.133 2.133 0 0 1 2.13 2.13.426.426 0 0 1 -.422.426z" transform="translate(-103.182 -97.617)"/></g></svg>