<svg viewBox="0 0 81.25 81.25"
    xmlns="http://www.w3.org/2000/svg"
    xmlns:xlink="http://www.w3.org/1999/xlink">
    <clipPath id="a">
        <path d="m20.62 28.62h40v25h-40z"/>
    </clipPath>
    <path d="m40.62 0a40.63 40.63 0 0 1 40.63 40.62 40.63 40.63 0 0 1 -40.63 40.63 40.63 40.63 0 0 1 -40.62-40.63 40.62 40.62 0 0 1 40.62-40.62z" fill="#fff"/>
    <path d="m40.62.5a40.12 40.12 0 0 1 40.13 40.12 40.12 40.12 0 0 1 -40.13 40.13 40.12 40.12 0 0 1 -40.12-40.13 40.12 40.12 0 0 1 40.12-40.12z" fill="none" stroke="#f2f2f2"/>
    <g clip-path="url(#a)">
        <path d="m29 40.06a.64.64 0 0 0 -.81.36.63.63 0 0 0 .36.81.62.62 0 0 0 .81-.35.61.61 0 0 0 -.36-.81" fill="#de5360"/>
        <path d="m28.79 41.52a.87.87 0 0 1 -.32-.06.88.88 0 0 1 .64-1.63.87.87 0 0 1 .51 1.08v.06a.83.83 0 0 1 -.45.45.84.84 0 0 1 -.35.07m0-1.25a.36.36 0 1 0 .35.51.36.36 0 0 0 -.22-.48h-.12" fill="#de5360"/>
        <path d="m60.22 49.65a5.67 5.67 0 0 0 -4.12-6.86c-1.92-.48-2-.71-4-2.63a.63.63 0 0 0 -.72-1l-.2.08-1.7-1.65a.63.63 0 0 0 0-.89.62.62 0 0 0 -.68-.13l-.25.1-1.65-1.67a.63.63 0 0 0 .06-.89.65.65 0 0 0 -.72-.17l-.3.13-3.6-3.5a2.19 2.19 0 0 0 -3-.05l-.28.26a2.16 2.16 0 0 0 -.59 2.35l.17.49-2.18.48a2.79 2.79 0 0 1 -3.24-1.79l-.68-1.9a2.86 2.86 0 0 0 -4.79-1c-2 2.18-2 2.15-2.27 2.49a11.87 11.87 0 0 0 -2.62 6.35l-1.86 2.67a.62.62 0 0 0 .07.82 19.74 19.74 0 0 0 8.86 4.89l23.54 5.87a6.14 6.14 0 0 0 6.67-2.67.75.75 0 0 0 .08-.18zm-1.14-.73a20.69 20.69 0 0 1 -6.56-.55c-3-.75-6-1.64-9-2.66l3.52-2.86a22.22 22.22 0 0 0 7.51 3.45 1.9 1.9 0 0 0 2.29-1.38 1.75 1.75 0 0 0 .05-.46 4.41 4.41 0 0 1 2.17 4.46zm-19.18-17.17c.34-.3.6-.62 1.15-.48.34.08.2 0 3.64 3.37l-1.34.57a.63.63 0 0 0 .48 1.16l1.84-.77 1.66 1.61-1.39.59a.63.63 0 1 0 .49 1.2l1.87-.79 1.7 1.57-1.43.6a.63.63 0 1 0 .5 1.16l1.93-.81 1.76 1.71a5.55 5.55 0 0 0 2.48 1.41.64.64 0 0 1 .48.75.62.62 0 0 1 -.74.48 21.13 21.13 0 0 1 -10.98-6.71l-4-4.58-.37-1a.93.93 0 0 1 .24-1m-11.2-1.45a1.61 1.61 0 0 1 2.27-.09 1.7 1.7 0 0 1 .42.63l.64 1.89a4 4 0 0 0 4.7 2.59l2.51-.56c4 4.66 4.72 5.62 6.78 7.27l-3.87 3.14c-.7-.25-1.4-.51-2.09-.78a4.56 4.56 0 0 0 -.92-3 13.68 13.68 0 0 0 -3.22-3l-9-6.08zm25.1 20.94-23.55-5.87a18.54 18.54 0 0 1 -7.89-4.2l1.37-1.9 2.51 1a.62.62 0 0 0 .79-.31.63.63 0 0 0 -.35-.82l-2.52-1a10.48 10.48 0 0 1 2-4.9l9.12 6.16a12.31 12.31 0 0 1 2.92 2.75 3.28 3.28 0 0 1 .67 1.8s-7.53-3-7.6-3a.64.64 0 0 0 -.79.41.63.63 0 0 0 .42.79c8 3.16 13.08 5.39 21.37 7.46a23.2 23.2 0 0 0 5.93.65 4.88 4.88 0 0 1 -4.37 1" fill="#333"/>
        <path d="m55 52.88a6.13 6.13 0 0 1 -1.54-.19l-23.59-5.87a19.94 19.94 0 0 1 -8.95-4.94.82.82 0 0 1 -.1-1.08l1.85-2.55a11.89 11.89 0 0 1 2.66-6.4c.22-.27.26-.31 1.22-1.35l1.05-1.15a3.06 3.06 0 0 1 4.32-.18 3.22 3.22 0 0 1 .81 1.22l.68 1.9a2.6 2.6 0 0 0 3 1.66l2-.44-.1-.27a2.38 2.38 0 0 1 .64-2.58l.29-.26a2.4 2.4 0 0 1 3.28.06l3.48 3.42.18-.08a.83.83 0 0 1 1 1.23l1.45 1.42.13-.05a.81.81 0 0 1 .9.17.83.83 0 0 1 .13 1l1.48 1.43h.08a.82.82 0 0 1 .86.14.84.84 0 0 1 .2 1l.5.48c1.38 1.37 1.6 1.57 3.24 2a5.87 5.87 0 0 1 4.26 7.1.77.77 0 0 1 -.1.25 6.32 6.32 0 0 1 -5.31 2.91m-25.15-24.12a2.71 2.71 0 0 0 -2 .86l-1.06 1.14c-.95 1-1 1.08-1.2 1.34a11.56 11.56 0 0 0 -2.58 6.24l-1.86 2.66a.43.43 0 0 0 .05.56 19.51 19.51 0 0 0 8.8 4.87l23.54 5.88a5.94 5.94 0 0 0 6.46-2.58.5.5 0 0 0 0-.13h.19-.19a5.48 5.48 0 0 0 -4-6.62c-1.75-.43-2-.69-3.43-2.08l-.57-.6-.13-.13.13-.17a.43.43 0 0 0 -.49-.68l-.33.14-1.94-1.86.14-.14a.43.43 0 0 0 0-.61.44.44 0 0 0 -.48-.09l-.37.15-1.92-1.91.16-.14a.44.44 0 0 0 0-.61.43.43 0 0 0 -.49-.11l-.42.17-3.69-3.6a2 2 0 0 0 -2.73 0l-.29.26a2 2 0 0 0 -.53 2.14l.25.7-2.4.54a3 3 0 0 1 -3.47-1.93l-.67-1.9a2.7 2.7 0 0 0 -2.51-1.76m25.18 22.87a4.67 4.67 0 0 1 -1.23-.16l-23.6-5.87a18.83 18.83 0 0 1 -8-4.24l-.13-.12 1.57-2.18 2.65 1a.43.43 0 0 0 .56-.24.44.44 0 0 0 -.25-.56l-2.66-1.05v-.15a10.68 10.68 0 0 1 2-5l.11-.16 9.28 6.26a12.55 12.55 0 0 1 3 2.8 3.49 3.49 0 0 1 .7 1.97v.27l-.27-.06-1.24-.49-6.37-2.52a.43.43 0 0 0 -.25.82l3.13 1.22a129.81 129.81 0 0 0 18.25 6.23 22.5 22.5 0 0 0 5.89.64h.55l-.42.36a5.05 5.05 0 0 1 -3.27 1.22m-32.4-10.44a18.32 18.32 0 0 0 7.67 4l23.55 5.87a4.75 4.75 0 0 0 3.72-.64 23.23 23.23 0 0 1 -5.38-.66 129 129 0 0 1 -18.33-6.25l-3.07-1.22a.82.82 0 0 1 -.5-1 .84.84 0 0 1 .38-.45.79.79 0 0 1 .62-.08l6.4 2.53.91.36a3 3 0 0 0 -.57-1.38 12.12 12.12 0 0 0 -2.87-2.71l-9-6a10.37 10.37 0 0 0 -1.76 4.45l2.37.94a.83.83 0 1 1 -.61 1.54l-2.36-.94zm34.82 8a21 21 0 0 1 -5.05-.62c-3-.75-6-1.64-9-2.67l-.34-.12 3.97-3.18.12.09a22 22 0 0 0 7.45 3.42 1.69 1.69 0 0 0 2-1.23 1.13 1.13 0 0 0 0-.41v-.35l.3.17a4.62 4.62 0 0 1 2.27 4.65v.09l-.11.09h-.03c-.53 0-1.06.06-1.58.06m-13.42-3.54c2.84 1 5.73 1.83 8.6 2.55a20.55 20.55 0 0 0 6.34.55 4.17 4.17 0 0 0 -1.81-3.93v.17a2.08 2.08 0 0 1 -2.53 1.52 22.41 22.41 0 0 1 -7.46-3.39zm-1.76-.19h-.11q-1.13-.44-2.13-.82l-.13-.06v-.14a4.37 4.37 0 0 0 -.87-2.92 12.88 12.88 0 0 0 -3.17-3l-9.23-6.2 1.93-2.1a1.8 1.8 0 0 1 2.54-.1 1.77 1.77 0 0 1 .47.71l.69 1.9a3.85 3.85 0 0 0 4.46 2.45l2.63-.58.08.09c.66.76 1.22 1.42 1.72 2a34.1 34.1 0 0 0 5 5.23l.2.15zm-1.97-1.14 1.85.69 3.59-2.92a34.9 34.9 0 0 1 -4.89-5.13l-1.65-1.94-2.39.53a4.26 4.26 0 0 1 -4.93-2.71l-.68-1.82a1.39 1.39 0 0 0 -1.79-.84 1.32 1.32 0 0 0 -.56.36l-1.61 1.75 8.83 6a14 14 0 0 1 3.26 3.08 4.73 4.73 0 0 1 1 3m14.7.95a.69.69 0 0 1 -.2 0 21.29 21.29 0 0 1 -11-6.77l-4-4.64-.37-1a1.11 1.11 0 0 1 .3-1.21l.08-.08a1.25 1.25 0 0 1 1.24-.45c.32.08.32.08 1.89 1.62l1.85 1.81.21.21-1.62.68a.49.49 0 0 0 -.23.24.43.43 0 0 0 .24.56.42.42 0 0 0 .33 0l2-.82 2 1.93-1.72.62a.43.43 0 0 0 -.2.57.44.44 0 0 0 .54.22l2-.85 2 1.92-1.72.72a.43.43 0 0 0 -.22.24.43.43 0 0 0 .23.56.47.47 0 0 0 .33 0l2.04-.87 1.85 1.8a5.59 5.59 0 0 0 2.39 1.35.83.83 0 0 1 -.2 1.63m-14.83-11.6 3.92 4.55a20.86 20.86 0 0 0 10.8 6.64.43.43 0 0 0 .24-.82 5.85 5.85 0 0 1 -2.57-1.46l-1.7-1.6-1.8.76a.83.83 0 1 1 -.65-1.52l1.16-.49-1.35-1.32-1.76.74a.81.81 0 0 1 -.63 0 .84.84 0 0 1 -.46-1.08.86.86 0 0 1 .45-.45l1.14-.49-1.35-1.32-1.71.72a.82.82 0 1 1 -.67-1.55l1.06-.45-1.63-1.55c-1.49-1.46-1.5-1.47-1.7-1.52-.4-.1-.6.09-.88.36l-.09.07a.75.75 0 0 0 -.19.79z" fill="#333"/>
        <g fill="#de5360">
            <path d="m46 39.26a.77.77 0 0 1 -.66-.53.89.89 0 0 1 .44-1.11l3.63-1.62a.74.74 0 0 1 1 .4v.07a.9.9 0 0 1 -.41 1.14l-3.62 1.59a.66.66 0 0 1 -.34.06"/>
            <path d="m48.6 41.81a.77.77 0 0 1 -.66-.51.84.84 0 0 1 .44-1l3.54-1.5a.75.75 0 0 1 1 .41s0 0 0 0a.84.84 0 0 1 -.44 1l-3.55 1.5a.63.63 0 0 1 -.33.06"/>
            <path d="m43.37 36.68a.73.73 0 0 1 -.61-.53.86.86 0 0 1 .43-1.06l3.44-1.49a.7.7 0 0 1 .91.39v.08a.87.87 0 0 1 -.44 1.07l-3.4 1.48a.63.63 0 0 1 -.33.06"/>
        </g>
    </g>
</svg>