<svg height="81.25" viewBox="0 0 81.25 81.25" width="81.25" xmlns="http://www.w3.org/2000/svg"><g fill="#fff" stroke="#f2f2f2"><rect height="81.25" rx="40.625" stroke="none" width="81.25"/><rect fill="none" height="80.25" rx="40.125" width="80.25" x=".5" y=".5"/></g><g transform="translate(14.463 20)"><g fill="none" stroke="#f84457" stroke-linecap="round" stroke-width="1.5"><path d="m32.406 24.289v10.391" transform="translate(1 5.688)"/><path d="m32.406 24.289v10.391" transform="translate(-6.657 5.688)"/><path d="m32.406 24.289v10.391" transform="translate(-14 5.688)"/></g><path d="m43.631 21.943a.605.605 0 0 0 -1.181.264 133.591 133.591 0 0 1 2.293 13.8 1.1 1.1 0 0 1 -.719 1.167c-7.506 2.698-17.905 2.926-18.275 2.926s-10.765-.23-18.275-2.926a1.1 1.1 0 0 1 -.719-1.167c.537-4.816 2.689-21.039 8.079-30.28a1.652 1.652 0 0 0 .345.038h1.328a67.219 67.219 0 0 0 -3.693 13.161.605.605 0 1 0 1.186.234 63.8 63.8 0 0 1 3.824-13.39h2.576a123.058 123.058 0 0 0 -2.3 15.739.605.605 0 1 0 1.205.114 119.314 119.314 0 0 1 2.344-15.854h8.2a119.308 119.308 0 0 1 2.337 15.853.605.605 0 1 0 1.205-.114 123.077 123.077 0 0 0 -2.3-15.739h2.579a63.8 63.8 0 0 1 3.83 13.391.605.605 0 1 0 1.188-.229 67.222 67.222 0 0 0 -3.696-13.162h1.328a1.636 1.636 0 0 0 .345-.038 54.131 54.131 0 0 1 5.135 13.738.605.605 0 0 0 1.174-.3 54.968 54.968 0 0 0 -5.32-14.148 1.562 1.562 0 0 0 .239-.83v-2.618a1.575 1.575 0 0 0 -1.573-1.573h-9.159a.605.605 0 0 0 0 1.21h2.3v3.349h-8.061v-3.349h2.935a.605.605 0 1 0 0-1.21h-9.156a1.575 1.575 0 0 0 -1.573 1.573v2.627a1.562 1.562 0 0 0 .24.831c-5.553 9.432-7.746 25.954-8.294 30.846a2.308 2.308 0 0 0 1.513 2.44c6.709 2.407 16.549 3.05 18.694 3 .44-.007 10.878-.2 18.675-3a2.308 2.308 0 0 0 1.513-2.44 134.875 134.875 0 0 0 -2.315-13.934zm-6.948-20.37v2.627a.37.37 0 0 1 -.363.363h-3.48v-3.353h3.48a.368.368 0 0 1 .363.363zm-6.016-.363h.962v3.349h-.962zm-10.476 0v3.349h-.962v-3.349zm-5.376.363a.368.368 0 0 1 .363-.363h2.841v3.349h-2.841a.37.37 0 0 1 -.363-.363z" fill="#333" stroke="#333" stroke-width=".6"/></g></svg>