<svg height="81.25" viewBox="0 0 81.25 81.25" width="81.25" xmlns="http://www.w3.org/2000/svg"><g fill="#fff" stroke="#f2f2f2"><rect height="81.25" rx="40.625" stroke="none" width="81.25"/><rect fill="none" height="80.25" rx="40.125" width="80.25" x=".5" y=".5"/></g><g transform="translate(-411.892 10804.559)"><path d="m659.085 56.912s-6.912-16.912-15.103-23.279c0 0-2.007 7.452-.509 11.281s4.451 7.243 10.309 15.115a21.243 21.243 0 0 0 5.3-3.118" fill="#fafafa" transform="translate(-181.877 -10813.405)"/><path d="m410.5-10494.439-3.738 2.673-2.243 1.6" fill="none" stroke="#ec5363" stroke-width="1.5" transform="translate(63.676 -268.249)"/><path d="m649.3 55.8a.252.252 0 0 1 -.2-.1q-1.84-2.474-3.312-4.405c-3.761-4.971-5.832-7.709-7.029-10.768a10.179 10.179 0 0 1 -.57-3.465 25.028 25.028 0 0 1 .247-3.737 37.543 37.543 0 0 1 .823-4.237.252.252 0 0 1 .4-.133 31.519 31.519 0 0 1 5.864 6.375 72.937 72.937 0 0 1 4.825 7.73 102.581 102.581 0 0 1 4.492 9.277.252.252 0 0 1 -.061.279 21.194 21.194 0 0 1 -5.38 3.167.251.251 0 0 1 -.094.018m-9.657-26.211a38.164 38.164 0 0 0 -.716 3.8c-.4 3.019-.3 5.421.293 6.946 1.171 2.994 3.228 5.713 6.962 10.648q1.42 1.877 3.2 4.251a20.938 20.938 0 0 0 4.919-2.877c-.345-.822-1.988-4.66-4.4-9.069-2.438-4.451-6.173-10.388-10.251-13.7" fill="#333" stroke="#333" transform="translate(-177.394 -10808.923)"/><path d="m4.734 56.912s6.912-16.912 15.103-23.279c0 0 2.007 7.452.509 11.281s-4.452 7.243-10.309 15.116a21.245 21.245 0 0 1 -5.3-3.118" fill="#fafafa" transform="translate(422.409 -10813.405)"/><path d="m404.524-10494.439 3.738 2.673 2.243 1.6" fill="none" stroke="#ec5363" stroke-width="1.5" transform="translate(25.676 -268.249)"/><path d="m5.554 55.8a.252.252 0 0 1 -.095-.018 21.2 21.2 0 0 1 -5.379-3.169.251.251 0 0 1 -.061-.279 102.55 102.55 0 0 1 4.492-9.277 72.921 72.921 0 0 1 4.825-7.73 31.516 31.516 0 0 1 5.864-6.375.251.251 0 0 1 .4.133 37.564 37.564 0 0 1 .823 4.237 25.023 25.023 0 0 1 .247 3.737 10.179 10.179 0 0 1 -.57 3.465c-1.2 3.059-3.268 5.8-7.029 10.768q-1.471 1.938-3.315 4.408a.252.252 0 0 1 -.2.1m-5-3.437a20.926 20.926 0 0 0 4.914 2.876q1.772-2.38 3.2-4.251c3.734-4.935 5.79-7.654 6.962-10.648.6-1.525.7-3.927.293-6.946a38.193 38.193 0 0 0 -.716-3.8c-4.078 3.315-7.812 9.253-10.251 13.7a104.03 104.03 0 0 0 -4.407 9.068" fill="#333" stroke="#333" transform="translate(426.892 -10808.923)"/><path d="m381.889 21.006c-.3-.491-1.945-15.877-1.945-15.877a30.721 30.721 0 0 1 10.829.1c6.3 1.1-8.883 15.773-8.883 15.773" fill="#fafafa" transform="translate(67.129 -10786.023)"/><path d="m377.407 16.792h-.032a.252.252 0 0 1 -.183-.118c-.071-.115-.218-.354-1.121-8.226-.444-3.864-.856-7.718-.86-7.756a.252.252 0 0 1 .2-.272 21.539 21.539 0 0 1 3.089-.368 34.578 34.578 0 0 1 7.837.468 1.878 1.878 0 0 1 1.653 1.249c.28.912-.1 2.23-1.169 4.031a37.945 37.945 0 0 1 -3.631 4.916 92.895 92.895 0 0 1 -5.605 6.005.251.251 0 0 1 -.175.071m-1.674-15.926c.094.876.445 4.122.821 7.4.592 5.165.865 7.081.989 7.781.817-.809 3.094-3.1 5.258-5.663a37.461 37.461 0 0 0 3.581-4.847c.976-1.648 1.353-2.868 1.12-3.626a1.4 1.4 0 0 0 -1.259-.9 34.068 34.068 0 0 0 -7.721-.461 23.691 23.691 0 0 0 -2.79.312" fill="#333" stroke="#333" transform="translate(71.611 -10781.559)"/><path d="m279.864 43.191a63.909 63.909 0 0 1 -24.258.54c.241-10.285 1.777-30.116 1.777-30.116a29.87 29.87 0 0 1 4.827-1.123c0 3.782 4.481 4.31 4.987 4.385.506-.075 4.929-.2 5.183-4.385a29.865 29.865 0 0 1 4.827 1.123s2.417 19.3 2.656 29.576" fill="#fafafa" transform="translate(184.863 -10793.388)"/><path d="m440.747-10758.167h23.353" fill="none" stroke="#ec5363" stroke-width="1.5"/><path d="m261.9 40.407q-.452 0-.9-.006a61.111 61.111 0 0 1 -9.917-.906.252.252 0 0 1 -.206-.253c.238-10.174 1.763-29.931 1.778-30.129a.252.252 0 0 1 .145-.213 29.584 29.584 0 0 1 4.884-1.139.251.251 0 0 1 .289.249c0 3.121 3.3 3.927 4.72 4.129h.017l.137-.015c3.032-.3 4.645-1.694 4.793-4.132a.252.252 0 0 1 .289-.233 29.579 29.579 0 0 1 4.89 1.141.252.252 0 0 1 .154.2c.024.193 2.422 19.429 2.658 29.6a.251.251 0 0 1 -.2.251 61.917 61.917 0 0 1 -13.531 1.456m-10.52-1.369a64.144 64.144 0 0 0 23.745-.531c-.25-9.72-2.408-27.392-2.631-29.2a28.924 28.924 0 0 0 -4.37-1.007 4.579 4.579 0 0 1 -.772 2.162 4.47 4.47 0 0 1 -1.579 1.374 7.742 7.742 0 0 1 -2.87.79c-.068.007-.122.012-.152.017a.252.252 0 0 1 -.074 0l-.05-.007a8.354 8.354 0 0 1 -2.815-.875 4.689 4.689 0 0 1 -1.618-1.385 3.932 3.932 0 0 1 -.71-2.073 28.929 28.929 0 0 0 -4.346 1.006c-.144 1.88-1.518 20-1.759 29.73" fill="#333" stroke="#333" transform="translate(189.346 -10788.904)"/><path d="m0 0h50.568v33.062h-50.568z" fill="none" transform="translate(426.892 -10781.559)"/></g></svg>