<svg height="81.25" viewBox="0 0 81.25 81.25" width="81.25" xmlns="http://www.w3.org/2000/svg"><g fill="#fff" stroke="#f2f2f2"><rect height="81.25" rx="40.625" stroke="none" width="81.25"/><rect fill="none" height="80.25" rx="40.125" width="80.25" x=".5" y=".5"/></g><g stroke-width=".5" transform="translate(20 18)"><path d="m97.006 206.172a.514.514 0 0 1 -.514-.514v-4.722a.514.514 0 1 1 1.029 0v4.722a.514.514 0 0 1 -.514.514" fill="#ec5363" stroke="#ec5363" transform="translate(-76.639 -160.527)"/><path d="m20.038 45.645a29.414 29.414 0 0 1 -8.1-1.157.5.5 0 0 1 -.369-.479v-16.052l-5.369 13.919a.511.511 0 0 1 -.395.317 5.432 5.432 0 0 1 -5.747-2.428.485.485 0 0 1 -.038-.365l5.39-18.316a6.91 6.91 0 0 1 2.865-3.825l2.85-1.859a7.535 7.535 0 0 1 2.73-1.086v-7.988a6.516 6.516 0 0 1 13.026 0v7.99a7.535 7.535 0 0 1 2.73 1.086l2.849 1.857a6.913 6.913 0 0 1 2.865 3.825l5.391 18.316a.486.486 0 0 1 -.038.367 5.429 5.429 0 0 1 -5.746 2.428.511.511 0 0 1 -.395-.317l-5.374-13.921v15.76a.5.5 0 0 1 -.342.471 26.885 26.885 0 0 1 -8.783 1.457m-7.438-2.013a26.89 26.89 0 0 0 15.533-.271v-18.161a.5.5 0 0 1 .423-.492.515.515 0 0 1 .573.316l6.263 16.223a4.329 4.329 0 0 0 4.271-1.785l-5.327-18.103a5.91 5.91 0 0 0 -2.45-3.27l-2.849-1.857a6.5 6.5 0 0 0 -2.737-.995.5.5 0 0 1 -.449-.5v-8.411a5.486 5.486 0 0 0 -10.968 0v8.416a.5.5 0 0 1 -.449.5 6.5 6.5 0 0 0 -2.736.994l-2.849 1.853a5.908 5.908 0 0 0 -2.45 3.27l-5.329 18.106a4.331 4.331 0 0 0 4.271 1.785l6.264-16.223a.515.515 0 0 1 .573-.316.5.5 0 0 1 .423.492z" fill="#333" stroke="#333"/><path d="m86.147 22.179h-7.593a.514.514 0 0 1 -.514-.514v-6.971a4.311 4.311 0 0 1 8.622 0v6.971a.514.514 0 0 1 -.514.514m-7.079-1.029h6.564v-6.456a3.282 3.282 0 1 0 -6.564 0z" fill="#333" stroke="#333" transform="translate(-61.983 -8.247)"/><path d="m97.006 81.931a.481.481 0 0 1 -.514-.44v-18.337a.521.521 0 0 1 1.029 0v18.337a.481.481 0 0 1 -.514.44" fill="#333" stroke="#333" transform="translate(-76.639 -49.016)"/><g fill="#ec5363" stroke="#ec5363"><path d="m84.106 86.7a.514.514 0 0 1 -.514-.514v-4.886a.514.514 0 0 1 1.029 0v4.884a.514.514 0 0 1 -.514.514" transform="translate(-66.393 -63.498)"/><path d="m109.907 86.7a.514.514 0 0 1 -.514-.514v-4.886a.514.514 0 1 1 1.029 0v4.884a.514.514 0 0 1 -.514.514" transform="translate(-86.885 -63.498)"/><path d="m76.276 175.847h-14.496a.514.514 0 0 1 -.514-.514v-1.833a.515.515 0 0 1 .345-.486 3.163 3.163 0 0 0 1.917-4.132.514.514 0 0 1 .48-.7h10.041a.514.514 0 0 1 .48.7 3.162 3.162 0 0 0 1.917 4.132.515.515 0 0 1 .345.486v1.83a.514.514 0 0 1 -.514.514m-13.981-1.029h13.466v-.968a4.207 4.207 0 0 1 -2.475-3.829 4.137 4.137 0 0 1 .08-.807h-8.676a4.149 4.149 0 0 1 .079.807 4.207 4.207 0 0 1 -2.475 3.829z" transform="translate(-48.66 -134.923)"/></g></g></svg>