<svg height="77.152" width="80.152" xmlns="http://www.w3.org/2000/svg"><path d="m10.679.529a10.137 10.137 0 0 0 -10.15 10.15v50.721a10.143 10.143 0 0 0 10.15 10.15h50.721a10.143 10.143 0 0 0 10.146-10.15v-50.721a10.137 10.137 0 0 0 -10.146-10.15zm32.972 10.145a7.609 7.609 0 1 1 -7.614 7.6 7.607 7.607 0 0 1 7.614-7.6zm-2.541 7.6a2.536 2.536 0 1 0 2.536-2.536 2.548 2.548 0 0 0 -2.536 2.536zm-17.571 7.618a10.172 10.172 0 0 1 7.173 2.957l11.647 11.469 6.494-6.405a10.188 10.188 0 0 1 14.341 0q1.641 1.633 3.279 3.269v7.178q-3.427-3.416-6.856-6.831a5.1 5.1 0 0 0 -7.2 0l-8.283 8.159a2.537 2.537 0 0 1 -3.577 0l-13.421-13.242a5.1 5.1 0 0 0 -7.188 0q-7.182 7.136-14.348 14.232v-7.148q5.378-5.337 10.769-10.68a10.161 10.161 0 0 1 7.168-2.957z" fill="#d5d5d5" transform="translate(-.529 -.529)"/><circle cx="66.017" cy="63.017" fill="#b9b9b9" r="14.135"/><g fill="#fff" fill-rule="evenodd"><path d="m53.223 58.474v-10.207a1.458 1.458 0 1 0 -2.916 0v10.207a1.458 1.458 0 0 0 2.916 0z" transform="translate(14.251 9.647)"/><path d="m49.913 53.871 3.187-3.456 3.2 3.456a1.458 1.458 0 1 0 2.142-1.979l-4.264-4.615a1.456 1.456 0 0 0 -2.142 0l-4.266 4.615a1.458 1.458 0 0 0 2.142 1.979z" transform="translate(12.912 9.647)"/></g></svg>