<svg viewBox="0 0 59.05 59.01" xmlns="http://www.w3.org/2000/svg"><g fill="#fff" stroke="#707070"><path d="m57.32 21.87a7.53 7.53 0 0 0 .07.83.44.44 0 0 0 .5.26.28.28 0 0 0 .11-.36 4.5 4.5 0 0 1 -.06-1.16.6.6 0 0 1 .19-.47c.32-.34.2-.7 0-1-.09-.08-.09-.15 0-.23l.2-.2c.17-.18 0-.47.2-.64v-.21c-.31-.22-.43 0-.52.19a6.25 6.25 0 0 0 -.3-3 1.49 1.49 0 0 0 -.55.19c-.17.16.05.39 0 .59a4 4 0 0 1 -.1.5c-.41.9-.09 1.86-.27 2.78v.49a1.43 1.43 0 0 0 .13.46l.11.11c.29.24.18.58.2.89"/><path d="m49.36 6.05c.25 0 .33-.19.34-.41h-.61c-.05.37 0 .45.27.42"/><path d="m57.64 14.4h.09a.74.74 0 0 0 0-.21h-.19c-.09 0-.17.1-.13.2s.16 0 .24 0"/><path d="m54 43.77-.17.24a.27.27 0 0 0 .17-.24"/><path d="m57.53 24.61c-.12.55-.23 1.1-.37 1.64a1.31 1.31 0 0 0 .16.91c.29.15.26.59.57.71a.5.5 0 0 0 .25-.44 3.68 3.68 0 0 1 .15-1 1.24 1.24 0 0 0 -.23-1.43c-.16-.18-.24-.44-.53-.43"/><path d="m56.08 18.69v-.05a1.1 1.1 0 0 1 0-.18.58.58 0 0 0 -.19 0 2.32 2.32 0 0 0 -.06-.83c-.14-.63-.24-1.28-.36-1.93-.05-.12-.1-.24-.16-.36a.21.21 0 0 0 -.15-.09s-.08.09-.08.14v.71l-.37-.22a1 1 0 0 1 0-.17c.18-.16.18-.31 0-.46l-.18-.39h-.08a.63.63 0 0 0 .14-.62.58.58 0 0 1 .24-.47 6.67 6.67 0 0 1 -.83-1.72.7.7 0 0 1 -.63 0c0-.2 0-.37-.24-.43a2.67 2.67 0 0 1 -.6-.81c.22-.19.5-.32.4-.69s0-.32.17-.35a.31.31 0 0 1 .25.13.51.51 0 0 0 .65.14c.22-.11.16-.36.18-.57a3 3 0 0 0 -1-1.7c-.17-.19-.26-.44-.43-.63l-.2.2c-.7.26-.56.78-.2 1.14.57.54.19.71-.22.94a3.35 3.35 0 0 0 -.42-.51 1.34 1.34 0 0 1 -.42-1l.24-.39a1.57 1.57 0 0 0 -1.21-.38c-.24 0-.19.22-.22.38a20.82 20.82 0 0 0 -2.49-1.27c0-.38.3-.55.4-.86h-.17a.18.18 0 0 0 -.23 0h-.18a.6.6 0 0 0 -.63 0 1.55 1.55 0 0 1 -.81.2 11.06 11.06 0 0 1 -1.99-.85c-.14-.24-.42-.25-.62-.39h-.39c-.2-.46-.63-.38-1-.42l-.45-.19c0-.17-.43-.19-.17-.48.08-.09 0-.21-.08-.26a2.23 2.23 0 0 0 -1.42-.51c-.2-.15-.5-.16-.63-.43a.35.35 0 0 1 -.24-.06 11.48 11.48 0 0 0 -1.74-1 1.83 1.83 0 0 0 -1.15-.25.57.57 0 0 0 -.11-.13c-.23 0-.48-.12-.7.07h-.41a1.23 1.23 0 0 0 -.73-.14 2 2 0 0 1 -.25.14 1 1 0 0 0 -.82.09h-.09a.94.94 0 0 0 -.43.08 1.59 1.59 0 0 0 -1.17-.36.4.4 0 0 1 -.19 0 .19.19 0 0 0 -.1.17 4.84 4.84 0 0 0 -1.6.22 2 2 0 0 1 -1-.2c-.16-.23-.4-.15-.61-.18a.72.72 0 0 1 -.65.11 1 1 0 0 0 -1 .08c-.36 0-.73-.06-1 .21v.09c-.24 0-.49-.08-.66.18l-.79.23c-.51-.09-.8.22-1 .62a7.83 7.83 0 0 0 -1.66.45 21.42 21.42 0 0 0 -3.29 1.63.77.77 0 0 1 -.19.08c-.46.25-1 .24-1.41.66a1.54 1.54 0 0 0 -.25.15 1.3 1.3 0 0 0 -1.07.45c-.12 0-.34.24-.34-.11 0-.14.1-.27.1-.4a.22.22 0 0 0 -.41-.15 2.55 2.55 0 0 0 -.38 1.29l-.2.22v-.08c-.54-.36 0-.55.11-.8.26-.46.24-.5-.28-.64-.26.23-.62.32-.82.63-.6.07-.69.6-.89 1a.48.48 0 0 1 -.12 0 .3.3 0 0 0 0-.1c-.3-.72-.7-.42-1.09-.11a2.34 2.34 0 0 1 -.81 1.13c-.3.23-.6.45-.87.7-.09.08-.11.24-.17.37l-1 .86c-.13.1-.09.31-.22.42-.35.52-.88.94-.82 1.67-.64 0-.66.65-.9 1.05a.32.32 0 0 1 0 .09l-.14.16c-.38-.13-.45.25-.63.44a1.67 1.67 0 0 0 -.22.9 1.69 1.69 0 0 1 -.2.8c0 .26.18.54-.1.77-.45.36-.44.9-.54 1.41-.4 1-.82 2.07-1.28 3.09v.05c-.51.08-.44.77-.73 1.08a4.2 4.2 0 0 0 -.55 1.31 8.64 8.64 0 0 0 -.43 2.5l-.44 1.1c0 .09.06.21.2.22s.11.1.13.15c.16.65 0 1.33.17 2 .05.17-.23.41-.3.64a2.66 2.66 0 0 0 0 .63c.37.69.14 1.48.38 2.2 0 .1 0 .19.06.29s.08.27.11.41.06.45.12.67l.06.22c-.16-.07-.32-.12-.34.18s0 .89 0 1.34c-.3.58 0 1.15 0 1.73s.31.81.21 1.26c.39.62.18 1.43.6 2 .09.17.17.33.25.5l.12.23a4.48 4.48 0 0 1 .32 1 1.55 1.55 0 0 0 .19.36.4.4 0 0 0 -.08.55 1.93 1.93 0 0 0 .62 1.48 2.42 2.42 0 0 1 .86 1.06.59.59 0 0 0 .52.65h.07l.2.45a1.33 1.33 0 0 0 0 .2h.14v.06.09a.8.8 0 0 0 .17.15l.2.11a.44.44 0 0 0 -.19.41.42.42 0 0 0 .2-.4l.28.15a.92.92 0 0 0 .33.11c0 .28-.06.59.2.81 0 .18.08.32.31.25a1 1 0 0 1 .29 0c0 .23 0 .51.3.59s.34.38.34.66c.32.54.92.71 1.39 1a2.37 2.37 0 0 1 1.07 1.14l.81.43a1 1 0 0 0 .9.4 1.5 1.5 0 0 1 1.31.28 1.32 1.32 0 0 0 .89.17c.1.58.1.58.64.63h.2l-.28.36c.5.08.88.52 1.38.48s.51.27.75.42c.31-.35.63-.51 1-.13a.65.65 0 0 0 .67.08c.2 0 .38-.18.58-.1l.2.6c0 .28.24.51.16.81l-.44.23c-.08 0-.2 0-.15.17s.11.06.17.07a.47.47 0 0 0 .44-.19c.72-.33.75-.31.82.49a3 3 0 0 1 0 .31v.45.2c.39-.12.39-.12.4-.64a.76.76 0 0 0 .08-.47.42.42 0 0 1 .41-.5h.05c0 .25.3.37.27.63a2.9 2.9 0 0 0 0 .93.46.46 0 0 0 -.08.25c.16.4.49.41.84.47a12.36 12.36 0 0 1 1.49 0h.43c.58-.09.77-.48.74-1h.26c.22.31.55.18.83.23h.4a.94.94 0 0 0 .64.3.36.36 0 0 0 .18-.07c.15.19.28 0 .4-.06l.21-.2v.07a.42.42 0 0 0 .43 0h.58c.24-.32.24-.32-.15-.48a.47.47 0 0 1 .48-.27.62.62 0 0 0 .56-.2c.47-.2.53-.32.43-.84h.12a1.56 1.56 0 0 0 2 .78l-.11.06c-.07.26-.37.21-.58.27l-1.64.18a.36.36 0 0 0 -.43.26.32.32 0 0 0 0 .14c.42 0 .87.12 1.26-.16h.58c.37 0 .76.23 1.1-.05a1.91 1.91 0 0 1 1.23-.44c.12 0 .24-.11.36-.16h.18a.57.57 0 0 0 .62-.2c.15 0 .32 0 .42-.17.46-.12.76-.55 1.23-.66a3.5 3.5 0 0 0 1.46-.86l.6-.24c.51-.31 1.21-.35 1.42-1.07s.78-.68 1.16-1l.06.07a.9.9 0 0 0 .36.12 1.23 1.23 0 0 1 .37.12.59.59 0 0 0 .37 0c.16-.09.26-.2.15-.4a1.53 1.53 0 0 0 -.18-.18 1.54 1.54 0 0 1 1-.2s0 0 0 .07l.09.1a.71.71 0 0 0 .25.11c.67 0 1.3-.34 2-.28h.2a1.1 1.1 0 0 1 .23-.2h.18l.22-.2.4-.22.2-.21a.86.86 0 0 1 .41-.41.88.88 0 0 0 .46-.82 3.08 3.08 0 0 0 1.8-1.34.25.25 0 0 0 .21-.21 2.09 2.09 0 0 1 .22-.2 29.25 29.25 0 0 0 3.85-4.36.81.81 0 0 0 .17-.24 1.25 1.25 0 0 0 0-.19 18.23 18.23 0 0 0 1.3-2.27 4.16 4.16 0 0 0 .16-.5c.09-.23.17-.45-.22-.42a20.68 20.68 0 0 1 -1.23 2.75l-.17.34h-.07a1.29 1.29 0 0 0 -.39.23 3.59 3.59 0 0 0 .44-.76l.6-1.52.7-2.09c0-.09-.07-.23-.13-.26s-.13.09-.17.18l-.15.4a.52.52 0 0 0 -.18-.18h-.08l.67-3.12c.21.16.18.4.2.63s0 .47.19.62a6.74 6.74 0 0 1 .19-1.48v-.61c0-.17 0-.33 0-.5s-.07-.26 0-.37c0-.28 0-.56 0-.85a.3.3 0 0 0 0-.41v-.23a1.58 1.58 0 0 0 .21-.85c.14-.06.14-.14 0-.22s.22-.29 0-.42v-.21a.85.85 0 0 0 .16-1c-.14-.38.12-.88-.34-1.15-.21-.12-.22-.33-.23-.55a2.64 2.64 0 0 1 .14-.84c.11-.37.16-.75.24-1.13-.29-.43 0-.9-.09-1.34a8.12 8.12 0 0 1 -.1-1.48.93.93 0 0 1 -.23 0 .44.44 0 0 1 .23 0 1.41 1.41 0 0 1 0-.2v-1.52-.4h.18a.67.67 0 0 0 0-.24.74.74 0 0 0 0-.14v-.15a2.42 2.42 0 0 1 .19 1.45 2 2 0 0 0 0 1.22c.24.16.19.41.2.64h.2v-3.83a3.6 3.6 0 0 0 -.3-2.17l-.13.09"/><path d="m56.15 24.73c0 .08 0 .14.07.15s0-.05.05-.08a1.23 1.23 0 0 0 0-.19.81.81 0 0 0 -.14.12"/><path d="m55 10.24c0-.05.09-.1.08-.15a2.79 2.79 0 0 0 -.07-.4.34.34 0 0 0 -.15.43c0 .06.1.08.14.12"/><path d="m56.65 12.8c-.1-.3-.27-.27-.56.08a1.82 1.82 0 0 1 .48 1.41c0 .11.06.2.18.17a.25.25 0 0 0 .13-.14 2.73 2.73 0 0 0 -.23-1.52"/><path d="m18 55.52h-.2a.49.49 0 0 0 0 .17l.2.21c.22 0 .48.13.65-.11s-.24-.29-.65-.29"/><path d="m51.12 6.67v-.37a.62.62 0 0 1 -.4-.22 1.7 1.7 0 0 0 -.37.1.31.31 0 0 0 -.1.15 2.64 2.64 0 0 0 .51.44c.08 0 .24-.06.35-.1"/><path d="m51.92 8.37s.1 0 .14-.08 0-.13-.09-.15a.14.14 0 0 0 -.15 0 .13.13 0 0 0 0 .17h.07"/><path d="m24.86 58.07a.09.09 0 0 0 0 .07s0 0 .07 0 0-.06 0-.08-.09-.06-.1 0"/></g></svg>